<svg width="106" height="52" viewBox="0 0 106 52" fill="none" xmlns="http://www.w3.org/2000/svg">
<path d="M35.7208 19.9718C32.9055 21.5121 32.2315 23.7214 32.1008 26.148C31.9732 28.5163 33.166 30.5572 35.0818 31.442C36.605 27.8171 37.6049 24.2215 35.7208 19.9718ZM16.8805 18.6707C14.5411 17.9511 13.6791 15.3957 11.5558 14.0318C11.6038 14.7134 11.5892 15.2656 11.6878 15.7971C13.0523 23.169 16.9964 28.8659 23.0379 33.1723C24.5118 34.2228 26.1296 34.9999 27.9669 35.1976C29.9016 35.4062 31.6843 35.0863 33.295 33.6016C32.8564 33.0517 32.4532 32.54 32.0432 32.0333C29.0673 28.3548 29.1979 22.9393 32.3487 19.4402C34.6321 16.9051 37.7259 17.4749 38.7956 20.7363C39.9178 24.1574 39.3174 27.5388 38.1248 30.8451C37.8766 31.5342 37.589 32.2089 37.3248 32.8776C42.7541 35.5661 53.2615 34.3587 58.3273 30.3664C58.4507 30.9104 58.7507 31.4405 58.5961 31.7139C58.2406 32.3436 57.7684 33.0548 57.1573 33.365C55.4393 34.2373 53.6903 35.1901 51.84 35.632C46.8881 36.8142 41.8947 36.7711 36.9816 35.3087C36.1854 35.0714 35.6165 35.0426 34.9444 35.6085C31.0558 38.8822 26.8829 38.4992 22.8533 36.1138C16.566 32.3916 12.3667 26.8799 9.96521 19.9902C9.72056 19.2873 9.52674 18.5659 9.2605 17.6933C8.52677 18.5326 8.71412 19.4542 8.59997 20.28C8.42644 21.5374 8.36844 22.8129 8.13891 24.0582C8.08233 24.3671 7.58599 24.7174 7.23336 24.8005C7.04396 24.8456 6.61916 24.4088 6.49972 24.1095C6.30988 23.6344 6.21874 23.0944 6.20533 22.5784C6.17188 21.309 6.07333 20.0202 6.23967 18.7709C6.63462 15.8082 7.16797 12.864 7.64491 9.91246C7.77366 9.11577 8.11285 8.35088 8.97642 8.35875C9.5542 8.36371 10.3046 8.69506 10.673 9.13524C12.7347 11.5974 14.718 14.126 16.6897 16.6619C17.0235 17.0909 17.1699 17.6657 17.4029 18.1735C17.2287 18.3388 17.0546 18.5048 16.8805 18.6707Z" fill="#B2A8A3"/>
<path d="M50.415 21.3787C50.4806 21.0003 50.623 20.5216 50.8423 19.9425C51.074 19.3547 51.3445 18.7304 51.6537 18.0695C51.9754 17.3999 52.3251 16.7243 52.7029 16.0427C53.0825 15.3507 53.4592 14.7068 53.833 14.1112C54.2067 13.5156 54.5616 12.9979 54.8975 12.5581C55.2335 12.1183 55.5195 11.8105 55.7556 11.6349C55.8589 11.6636 55.9882 11.7293 56.1437 11.832C56.3114 11.926 56.4764 12.0358 56.6387 12.1613C56.801 12.2868 56.9458 12.4201 57.0729 12.5612C57.2018 12.6918 57.2791 12.808 57.3048 12.9099C56.9527 13.1304 56.576 13.4928 56.1748 13.997C55.7859 14.4926 55.3885 15.068 54.9828 15.723C54.5877 16.3799 54.201 17.0815 53.8227 17.828C53.4463 18.5639 53.1051 19.2842 52.7991 19.989C52.493 20.6938 52.2328 21.3524 52.0186 21.9648C51.8148 22.579 51.6792 23.0806 51.6119 23.4695C51.581 23.6482 51.5776 23.7613 51.6019 23.8088C51.3725 23.7582 51.2116 23.6871 51.1192 23.5953C51.025 23.514 50.9537 23.4259 50.9052 23.3309C50.8654 23.2482 50.8265 23.1603 50.7885 23.0671C50.7592 22.9863 50.7009 22.9166 50.6135 22.8582C50.5454 22.8139 50.4951 22.7295 50.4626 22.6047C50.43 22.48 50.4046 22.3457 50.3862 22.2018C50.3801 22.0492 50.3793 21.8975 50.3838 21.7467C50.3882 21.5959 50.3987 21.4733 50.415 21.3787ZM56.3178 17.107C56.2762 17.0349 56.2516 16.8953 56.2442 16.6883C56.2385 16.4709 56.2484 16.2885 56.2739 16.1414C56.5435 16.2097 56.8026 16.2762 57.0513 16.3409C57.3017 16.3951 57.5311 16.4457 57.7395 16.4926C57.9517 16.2046 58.1736 15.9236 58.405 15.6498C58.6488 15.3672 58.8766 15.1144 59.0884 14.8912C59.3126 14.6594 59.5137 14.4669 59.6918 14.3137C59.8804 14.1623 60.0213 14.0676 60.1145 14.0296C60.2196 14.0478 60.3473 14.0916 60.4977 14.1609C60.6604 14.2216 60.8204 14.298 60.9776 14.3902C61.1367 14.4718 61.2791 14.556 61.4048 14.6427C61.5305 14.7295 61.6142 14.8089 61.6558 14.8811C61.2713 15.2259 60.9335 15.5517 60.6422 15.8585C60.3633 16.1566 60.0542 16.5036 59.715 16.8996C59.9252 16.9359 60.1363 16.9671 60.3483 16.993C60.5709 17.0207 60.7943 17.0431 61.0187 17.0603C61.0621 17.122 61.0924 17.1976 61.1093 17.2871C61.1281 17.3661 61.1302 17.4477 61.1157 17.5318C60.5679 17.6318 59.9244 17.6286 59.185 17.5223C58.8349 17.9813 58.5111 18.4448 58.2135 18.9129C57.9283 19.3723 57.6721 19.8205 57.4449 20.2575C57.2282 20.6963 57.0423 21.1134 56.8872 21.5087C56.7427 21.9059 56.6422 22.2674 56.5858 22.5932C56.5057 23.0556 56.6346 23.3432 56.9723 23.4558C57.2949 23.4683 57.6081 23.4414 57.9119 23.3749C58.2157 23.3084 58.4934 23.2049 58.7451 23.0645C58.7917 23.17 58.8149 23.2552 58.8145 23.32C58.735 23.4037 58.6056 23.495 58.4261 23.5938C58.2571 23.6944 58.0733 23.7871 57.8746 23.8718C57.6741 23.967 57.4824 24.0421 57.2997 24.097C57.117 24.152 56.9827 24.1774 56.8968 24.1734C56.6358 24.1174 56.3831 24.0141 56.1385 23.8635C55.894 23.7129 55.675 23.5397 55.4816 23.3438C55.2987 23.1498 55.1553 22.9463 55.0514 22.7335C54.9493 22.5101 54.9147 22.3038 54.9474 22.1147C54.9911 21.8624 55.0772 21.5526 55.2058 21.1851C55.3467 20.809 55.5193 20.4058 55.7237 19.9757C55.9281 19.5456 56.1571 19.0981 56.4108 18.6333C56.6645 18.1684 56.933 17.7115 57.2164 17.2626L56.3178 17.107ZM63.575 16.0415C63.521 15.978 63.4778 15.8839 63.4452 15.7592C63.4145 15.624 63.4082 15.5038 63.4264 15.3987C63.7656 15.0028 64.0312 14.5941 64.2233 14.1727C64.4171 13.7408 64.5623 13.2463 64.6587 12.6892C64.7315 12.2688 64.7801 11.8009 64.8044 11.2855C65.0635 11.352 65.3128 11.4439 65.5523 11.5611C65.8041 11.6697 66.0208 11.7938 66.2023 11.9335C66.3961 12.0645 66.5495 12.2101 66.6625 12.3704C66.7773 12.5202 66.8396 12.6609 66.8493 12.7924C66.146 14.4785 65.0545 15.5615 63.575 16.0415ZM69.2431 19.1013C69.198 19.2992 69.1248 19.503 69.0235 19.7128C68.9346 19.9139 68.8326 20.0965 68.7176 20.2606C68.6044 20.4143 68.4905 20.5407 68.3759 20.6399C68.2613 20.7391 68.1619 20.7815 68.0778 20.7669C67.964 20.7364 67.9094 20.6457 67.9138 20.495C67.9193 20.4634 67.938 20.418 67.9699 20.3585C68.0142 20.2904 68.0594 20.2171 68.1055 20.1384C68.1515 20.0598 68.1924 19.9803 68.228 19.8998C68.274 19.8212 68.3025 19.7504 68.3135 19.6873C68.3389 19.5402 68.3231 19.4129 68.2659 19.3056C68.221 19.1896 68.1408 19.1215 68.0252 19.1015C67.6048 19.0287 67.2387 19.236 66.927 19.7233C66.6153 20.2106 66.3712 20.964 66.1947 21.9835C66.1765 22.0886 66.1708 22.1526 66.1777 22.1754C66.4002 22.2031 66.5956 22.2315 66.7637 22.2606C66.9442 22.2811 67.1186 22.3058 67.2867 22.335C67.2936 22.3578 67.2916 22.4007 67.2807 22.4638C67.2643 22.5584 67.2314 22.6231 67.1821 22.6578C66.9313 22.6685 66.7286 22.6822 66.5742 22.6987C66.4321 22.7066 66.3216 22.7199 66.2425 22.7387C66.1635 22.7575 66.1098 22.7861 66.0815 22.8245C66.0656 22.8542 66.0521 22.9006 66.0412 22.9637C66.0267 23.0478 66.0121 23.1319 65.9975 23.2159C65.9935 23.3018 65.9805 23.4079 65.9587 23.534C65.8059 24.4168 65.4413 25.0844 64.865 25.5368C64.2992 25.9909 63.5834 26.1863 62.7175 26.123C62.5722 26.087 62.4271 26.0186 62.2822 25.9177C62.1372 25.8168 62.0012 25.6959 61.8741 25.5548C61.7575 25.4155 61.6593 25.2632 61.5797 25.0979C61.4983 24.943 61.4493 24.7884 61.4327 24.634C61.5019 24.2346 61.6514 23.8708 61.8815 23.5425C62.1133 23.2038 62.3948 22.9223 62.7259 22.6982C63.0693 22.4654 63.45 22.2986 63.868 22.1977C64.2984 22.0882 64.7475 22.0577 65.2154 22.1062C65.2609 21.8435 65.2792 21.5814 65.2703 21.3201C65.2614 21.0587 65.2455 20.807 65.2224 20.5648C65.2117 20.314 65.1992 20.0737 65.1849 19.8439C65.1724 19.6035 65.1852 19.373 65.2234 19.1523C65.2726 18.8685 65.3786 18.6 65.5415 18.3468C65.7063 18.083 65.9032 17.8519 66.1325 17.6534C66.3635 17.4444 66.6197 17.2777 66.9011 17.1532C67.1824 17.0287 67.4652 16.9586 67.7494 16.9428C67.8595 16.9944 67.9956 17.1154 68.1575 17.3058C68.3317 17.4875 68.497 17.6893 68.6534 17.9113C68.8099 18.1332 68.9444 18.3568 69.0569 18.5819C69.1713 18.7966 69.2334 18.9697 69.2431 19.1013ZM62.7958 25.3896C63.0662 25.3282 63.3291 25.2167 63.5844 25.0552C63.8502 24.8956 64.089 24.7042 64.3008 24.481C64.5127 24.2579 64.6905 24.0126 64.8342 23.7452C64.9884 23.4796 65.0892 23.2102 65.1365 22.937C64.9208 22.9321 64.6723 22.9919 64.391 23.1164C64.1114 23.2304 63.8413 23.3839 63.5805 23.5769C63.3216 23.7594 63.0976 23.9588 62.9086 24.175C62.7196 24.3913 62.6097 24.5888 62.5787 24.7674C62.5387 24.9987 62.611 25.206 62.7958 25.3896ZM72.0026 30.7346C71.7581 30.584 71.635 30.357 71.6334 30.0536C71.6405 29.7626 71.5019 29.5004 71.2175 29.2672C71.3944 28.7457 71.5827 28.2208 71.7824 27.6924C71.9821 27.1641 72.2209 26.5667 72.4986 25.9004C72.7887 25.2253 73.1347 24.4462 73.5366 23.5632C73.9508 22.6714 74.4617 21.5962 75.0693 20.3374C74.7225 20.2773 74.4483 20.2353 74.2468 20.2112C74.0453 20.1871 73.8472 20.1745 73.6526 20.1733C73.6178 20.1239 73.591 20.0598 73.5722 19.9807C73.564 19.9035 73.5653 19.8334 73.5762 19.7703C73.6886 19.7465 73.9131 19.7312 74.2499 19.7246C74.5884 19.7074 74.9567 19.7062 75.3547 19.721C75.7452 18.9659 76.158 18.3012 76.593 17.727C77.0298 17.1423 77.4765 16.6567 77.9332 16.2703C78.3898 15.8839 78.8492 15.6062 79.3115 15.4372C79.7738 15.2683 80.2203 15.2211 80.6513 15.2957C80.7774 15.3176 80.8964 15.349 81.0084 15.39C81.1222 15.4206 81.2106 15.4413 81.2737 15.4522C81.381 15.395 81.5181 15.3538 81.6848 15.3285C81.8534 15.2928 81.9955 15.2849 82.1111 15.3049C82.2372 15.3267 82.3883 15.4233 82.5644 15.5945C82.4548 15.7271 82.3309 15.9113 82.1926 16.1472C82.0543 16.383 81.9328 16.6164 81.8278 16.8472C81.4304 17.5795 81.0646 18.0357 80.7302 18.216C80.6146 18.196 80.5779 18.0327 80.6202 17.7261C80.6479 17.5035 80.6537 17.2826 80.6375 17.0633C80.6119 16.9614 80.5949 16.8719 80.5866 16.7947C80.5888 16.7193 80.6 16.6238 80.62 16.5082C80.6309 16.4451 80.6489 16.3724 80.674 16.2902C80.7008 16.1974 80.7482 16.0486 80.8162 15.8439C80.6375 15.813 80.4187 15.8887 80.1598 16.0712C79.9113 16.2556 79.6308 16.5318 79.3181 16.8998C79.0177 17.2592 78.6984 17.6964 78.3602 18.2116C78.0221 18.7268 77.6844 19.3016 77.3472 19.9361L78.6797 20.1181C78.7231 20.1797 78.7443 20.3079 78.743 20.5025C78.7541 20.6885 78.7477 20.8822 78.7236 21.0837L77.0058 20.6889C76.4008 21.8074 75.8311 22.8779 75.2968 23.9004C74.7626 24.9229 74.2796 25.8677 73.8481 26.7348C73.4165 27.6019 73.039 28.3755 72.7155 29.0556C72.4008 29.7481 72.1632 30.3077 72.0026 30.7346ZM76.9892 26.5804C77.0945 26.2847 77.253 25.9008 77.4647 25.4286C77.6886 24.9478 77.9382 24.4443 78.2133 23.9182C78.4902 23.3816 78.7777 22.8468 79.0757 22.3138C79.3736 21.7808 79.6563 21.3047 79.9237 20.8856C80.1168 20.5834 80.2813 20.3521 80.4174 20.1916C80.5552 20.0206 80.6981 19.883 80.8461 19.7787C80.9896 19.8252 81.1356 19.8884 81.2842 19.9682C81.4327 20.048 81.5742 20.1375 81.7086 20.2365C81.843 20.3356 81.9608 20.4372 82.0618 20.5413C82.1647 20.6349 82.2413 20.7239 82.2916 20.8084C81.9496 21.0956 81.6309 21.4355 81.3356 21.8282C81.0508 22.2228 80.7398 22.7373 80.4026 23.3717C81.0575 22.9655 81.6405 22.5684 82.1515 22.1806C82.673 21.7946 83.172 21.3505 83.6487 20.8485C83.7208 20.8068 83.8357 20.7997 83.9934 20.827C84.1405 20.8525 84.2779 20.9033 84.4054 20.9795C84.5348 21.0452 84.6184 21.1246 84.6564 21.2178C84.3799 21.6896 84.1989 22.1724 84.1133 22.6664C84.0333 23.1289 84.0415 23.4875 84.1381 23.7424C84.1167 23.8037 84.0222 23.9118 83.8547 24.0668C83.6976 24.2236 83.5266 24.3672 83.3416 24.4976C83.0833 24.3013 82.8657 24.058 82.6886 23.7675C82.5134 23.4665 82.3996 23.1545 82.3473 22.8315C81.7933 23.0929 81.3137 23.3616 80.9086 23.6379C80.5054 23.9037 80.1421 24.2197 79.8189 24.5859C79.508 24.9435 79.2178 25.3695 78.9481 25.8641C78.689 26.3605 78.4178 26.9577 78.1346 27.6556C78.0418 27.6287 77.9325 27.5719 77.8068 27.4852C77.6898 27.4108 77.5703 27.3197 77.4482 27.212C77.3366 27.1061 77.2365 26.9967 77.1477 26.8839C77.059 26.7711 77.0062 26.67 76.9892 26.5804ZM90.4456 22.5124C90.2907 23.1568 90.0777 23.6991 89.8067 24.1393C89.5374 24.569 89.1932 24.9316 88.774 25.227C88.3671 25.5138 87.8868 25.7554 87.3332 25.9519C86.7796 26.1483 86.1437 26.3197 85.4255 26.466C85.4146 26.529 85.3975 26.5964 85.3743 26.6682C85.3633 26.7312 85.3515 26.7996 85.3388 26.8731C85.3151 27.0098 85.3011 27.1535 85.2966 27.3043C85.2922 27.455 85.3053 27.598 85.336 27.7333C85.3667 27.8685 85.4221 27.9863 85.5021 28.0868C85.584 28.1767 85.6985 28.2344 85.8456 28.2599C86.1294 28.3091 86.4188 28.2942 86.7139 28.2154C87.0091 28.1366 87.2929 28.0288 87.5656 27.892C87.8506 27.7464 88.1164 27.5868 88.363 27.413C88.6219 27.2305 88.851 27.0644 89.0501 26.9149C89.1388 27.0277 89.2127 27.1325 89.2717 27.2293C88.6895 27.778 88.0783 28.2135 87.4379 28.5356C86.8099 28.8491 86.2337 29.0199 85.7091 29.0482C84.9985 28.8386 84.4764 28.4775 84.143 27.9651C83.8218 27.444 83.7158 26.8682 83.825 26.2376C83.8996 25.8066 84.0329 25.3805 84.225 24.9591C84.4294 24.529 84.6721 24.1271 84.9533 23.7536C85.2468 23.3714 85.5673 23.021 85.9148 22.7022C86.2727 22.3853 86.6383 22.1185 87.0114 21.9016C87.3951 21.6866 87.774 21.5302 88.1481 21.4326C88.5327 21.3369 88.8985 21.319 89.2453 21.379C89.7179 21.5258 90.118 21.9036 90.4456 22.5124ZM89.2677 22.8443C88.9766 22.8372 88.6623 22.9019 88.3248 23.0383C87.9872 23.1747 87.6545 23.3769 87.3266 23.6449C87.0093 23.9147 86.7039 24.2408 86.4104 24.623C86.1169 25.0052 85.8652 25.4271 85.6554 25.8887C86.569 25.6139 87.3571 25.2199 88.0197 24.7067C88.6841 24.1831 89.1001 23.5623 89.2677 22.8443ZM96.8195 23.616C96.6646 24.2603 96.4517 24.8026 96.1806 25.2428C95.9113 25.6725 95.5671 26.0351 95.1479 26.3306C94.741 26.6174 94.2607 26.859 93.7071 27.0554C93.1535 27.2519 92.5176 27.4232 91.7994 27.5695C91.7885 27.6326 91.7714 27.7 91.7482 27.7717C91.7373 27.8348 91.7254 27.9031 91.7127 27.9767C91.689 28.1133 91.675 28.257 91.6705 28.4078C91.6661 28.5586 91.6792 28.7016 91.7099 28.8368C91.7406 28.972 91.796 29.0899 91.876 29.1903C91.9579 29.2803 92.0724 29.338 92.2195 29.3635C92.5033 29.4126 92.7928 29.3978 93.0879 29.319C93.383 29.2402 93.6669 29.1323 93.9395 28.9955C94.2245 28.85 94.4903 28.6903 94.7369 28.5165C94.9959 28.334 95.2249 28.168 95.424 28.0184C95.5127 28.1312 95.5866 28.236 95.6456 28.3329C95.0634 28.8816 94.4522 29.317 93.8119 29.6392C93.1838 29.9526 92.6076 30.1235 92.0831 30.1518C91.3724 29.9421 90.8504 29.5811 90.5169 29.0687C90.1957 28.5476 90.0898 27.9717 90.1989 27.3411C90.2735 26.9102 90.4069 26.484 90.5989 26.0626C90.8033 25.6325 91.0461 25.2307 91.3272 24.8572C91.6207 24.475 91.9412 24.1245 92.2887 23.8058C92.6467 23.4889 93.0122 23.222 93.3854 23.0052C93.769 22.7901 94.1479 22.6338 94.522 22.5362C94.9067 22.4404 95.2724 22.4225 95.6193 22.4826C96.0918 22.6294 96.4919 23.0072 96.8195 23.616ZM95.6416 23.9479C95.3505 23.9408 95.0362 24.0055 94.6987 24.1419C94.3611 24.2783 94.0284 24.4805 93.7006 24.7485C93.3832 25.0183 93.0778 25.3443 92.7843 25.7265C92.4908 26.1087 92.2391 26.5306 92.0293 26.9923C92.9429 26.7174 93.731 26.3234 94.3936 25.8103C95.058 25.2866 95.474 24.6658 95.6416 23.9479ZM97.6577 27.4309C97.7068 27.1471 97.8514 26.75 98.0913 26.2394C98.3436 25.7202 98.647 25.1556 99.0016 24.5459C99.358 23.9256 99.7486 23.295 100.174 22.6541C100.6 22.0026 101.019 21.3985 101.429 20.8417C101.85 20.2867 102.24 19.813 102.601 19.4207C102.963 19.0179 103.262 18.7611 103.497 18.6504C103.66 18.711 103.825 18.8208 103.992 18.9797C104.172 19.1299 104.332 19.2983 104.473 19.4851C104.616 19.6614 104.736 19.8445 104.833 20.0345C104.93 20.2245 104.978 20.3844 104.977 20.5142C104.365 20.8628 103.738 21.3227 103.098 21.8938C102.46 22.4545 101.845 23.0951 101.255 23.8156C100.675 24.538 100.138 25.3272 99.6436 26.1834C99.1508 27.0291 98.7384 27.9103 98.4065 28.8271C98.2858 28.7737 98.1661 28.7151 98.0472 28.6512C97.9407 28.5787 97.8527 28.4931 97.7832 28.3944C97.7137 28.2958 97.6654 28.1683 97.6383 28.0121C97.6112 27.8559 97.6177 27.6621 97.6577 27.4309ZM96.5875 31.5487C96.4614 31.5269 96.346 31.4744 96.2413 31.3913C96.1348 31.3187 96.0415 31.2322 95.9615 31.1318C95.8901 31.0436 95.8364 30.9477 95.8002 30.844C95.7622 30.7509 95.7478 30.678 95.7569 30.6254C95.7787 30.4993 95.8227 30.3391 95.8888 30.1449C95.9549 29.9507 96.0349 29.7697 96.1289 29.6019C96.2247 29.4236 96.3309 29.2796 96.4473 29.1699C96.5655 29.0496 96.6825 28.9995 96.7981 29.0195C97.0924 29.0705 97.3685 29.2265 97.6264 29.4877C97.8966 29.7402 98.0834 30.0053 98.1869 30.283C98.0371 30.3978 97.9004 30.5311 97.7767 30.6829C97.6511 30.8452 97.5284 30.9917 97.4083 31.1225C97.2864 31.2637 97.1585 31.3769 97.0247 31.462C96.8909 31.5471 96.7452 31.576 96.5875 31.5487Z" fill="#B2A8A3"/>
</svg>
