<svg width="679" height="821" viewBox="0 0 679 821" fill="none" xmlns="http://www.w3.org/2000/svg">
<circle cx="363.5" cy="479.106" r="196.5" fill="#FEF3ED"/>
<path d="M572.915 274.745C572.915 282.003 567.113 287.884 559.956 287.884C552.802 287.884 547 282.003 547 274.745C547 267.487 552.802 261.606 559.956 261.606C567.113 261.606 572.915 267.487 572.915 274.745Z" stroke="white" stroke-width="2.57733" stroke-miterlimit="10"/>
<path d="M285.915 87.745C285.915 95.0027 280.113 100.884 272.956 100.884C265.802 100.884 260 95.0027 260 87.745C260 80.4872 265.802 74.6061 272.956 74.6061C280.113 74.6061 285.915 80.4872 285.915 87.745Z" stroke="white" stroke-width="2.57733" stroke-miterlimit="10"/>
<path d="M167 687.606C167 699.759 157.149 709.606 144.998 709.606C132.851 709.606 123 699.759 123 687.606C123 675.454 132.851 665.606 144.998 665.606C157.149 665.606 167 675.454 167 687.606Z" stroke="white" stroke-width="2.57733" stroke-miterlimit="10"/>
<path d="M152.962 308.798C153.848 309.738 156.416 314.471 157.514 311.397C158.134 309.656 157.795 307.753 157.055 305.876C155.939 303.052 153.902 300.274 152.768 298.17C150.017 293.067 149.216 286.909 150.667 281.291C151.728 277.179 153.952 273.83 156.324 270.591C158.624 267.451 161.053 264.41 162.716 260.893C163.058 260.169 163.378 259.434 163.647 258.663C165.652 252.908 163.727 245.998 159.032 242.105C156.163 239.727 152.765 239.432 149.491 241.108C146.477 242.653 144.77 246.889 143.382 249.8C142.252 252.17 141.322 254.631 140.553 257.144C139.888 259.313 139.362 261.523 138.977 263.76C138.324 267.557 138.054 271.42 138.243 275.269C138.639 283.296 140.93 291.255 144.68 298.364C144.897 298.777 145.132 299.176 145.36 299.584C146.013 300.75 146.693 301.901 147.423 303.017C148.977 305.386 151.071 306.788 152.962 308.798Z" fill="url(#paint0_linear_745_31)"/>
<path d="M167.221 211.604C163.887 213.029 161.716 215.592 160.364 218.132C159.414 219.915 158.858 221.674 158.581 223.435C158.322 225.078 158.309 226.72 158.465 228.379C158.7 230.872 158.279 234.375 161.253 235.923C163.09 236.88 166.024 236.463 168.142 235.366C170.258 234.266 171.708 232.626 172.923 230.996C175.311 227.797 177.07 224.411 178.127 220.988C178.755 218.949 177.97 216.774 177.605 214.814C177.494 214.21 177.369 213.598 177.094 213.04C177.004 212.858 176.9 212.682 176.774 212.513C176.034 211.515 174.635 210.958 173.028 210.771C171.164 210.555 169.013 210.839 167.221 211.604Z" fill="url(#paint1_linear_745_31)"/>
<path d="M200.591 488.098C199.908 482.422 198.94 476.761 199.834 471.15C200.124 469.332 200.609 467.516 200.447 465.683C200.284 463.851 199.287 461.939 197.538 461.364C192.94 459.858 187.753 468.297 185.583 471.567C183.842 474.186 182.847 477.449 182.372 480.769C182.008 483.299 181.941 485.86 182.12 488.199C182.121 488.224 182.121 488.249 182.123 488.27C182.599 494.329 185.405 500.434 190.503 503.735C192.025 504.722 193.828 505.457 195.617 505.175C197.654 504.855 199.314 503.238 200.161 501.36C200.802 499.937 201.044 498.383 201.118 496.816C201.141 496.31 201.148 495.805 201.144 495.302C201.123 492.9 200.88 490.496 200.591 488.098Z" fill="url(#paint2_linear_745_31)"/>
<path d="M206.302 446.741C205.822 446.037 204.889 445.758 204.04 445.833C203.191 445.908 202.4 446.282 201.63 446.645L201.012 446.874C200.573 448.218 200.276 449.608 200.096 451.009C199.975 451.941 199.897 452.877 199.891 453.814C199.888 454.782 200.211 456.037 201.176 456.091C201.866 456.129 202.375 455.481 202.757 454.903C203.687 453.49 204.615 452.078 205.541 450.66C205.883 450.14 206.217 449.546 206.426 448.944C206.692 448.176 206.749 447.398 206.302 446.741Z" fill="url(#paint3_linear_745_31)"/>
<path d="M431.486 299.58C430.41 298.738 429.136 298.18 427.837 297.761C427.646 297.7 427.422 297.642 427.253 297.752L427.03 298.088C426.972 298.247 426.939 298.41 426.897 298.575C425.653 303.231 430.238 309.319 433.532 311.979C434.026 312.376 434.575 312.765 435.207 312.812C436.085 312.881 436.906 312.242 437.272 311.438C437.631 310.636 437.606 309.709 437.446 308.846C437.071 306.816 436.004 305.012 434.777 303.333C434.476 302.915 434.166 302.5 433.851 302.101C433.137 301.191 432.394 300.293 431.486 299.58Z" fill="url(#paint4_linear_745_31)"/>
<path d="M420.792 292.493C421.109 292.419 421.437 292.274 421.608 291.992C421.723 291.806 421.759 291.58 421.78 291.36C421.924 290.007 421.71 288.535 420.803 287.524C419.893 286.511 418.155 286.194 417.164 287.128L417.047 286.995C416.711 286.819 416.277 287.054 416.115 287.397C415.956 287.739 416 288.14 416.075 288.51C416.301 289.641 416.788 290.743 417.625 291.534C418.458 292.325 419.673 292.761 420.792 292.493Z" fill="url(#paint5_linear_745_31)"/>
<path d="M357.829 365.769C359.168 365.122 360.376 364.091 360.965 362.723C361.216 362.14 361.306 361.489 361.283 360.852C361.252 359.998 360.992 359.162 360.42 358.534C359.982 358.053 359.413 357.712 358.834 357.419C356.298 356.135 352.535 355.739 349.617 356.895C348.733 357.244 347.92 357.722 347.252 358.38C346.05 359.56 345.893 361.05 346.342 362.461C347.041 364.647 349.212 366.653 351.338 367.057C352.063 367.198 352.812 367.089 353.542 366.966C353.619 366.953 353.699 366.937 353.774 366.925C355.167 366.686 356.558 366.381 357.829 365.769Z" fill="url(#paint6_linear_745_31)"/>
<path d="M209.883 379.805C208.448 377.412 207.017 375.014 205.58 372.621C205.416 372.351 205.253 372.077 205.089 371.804C204.396 370.646 203.702 369.488 203.008 368.331C202.315 367.176 201.62 366.019 200.925 364.861C200.178 363.608 199.44 362.346 198.695 361.093C197.84 359.658 196.989 358.222 196.141 356.783C195.674 355.989 195.199 355.203 194.734 354.409C193.607 352.482 192.48 350.548 191.366 348.609C190.47 347.048 189.569 345.469 188.678 343.898C187.879 342.483 187.091 341.075 186.307 339.654C188.757 340.878 191.205 342.101 193.655 343.325C188.979 336.868 184.041 330.664 177.789 325.857C174.457 323.295 170.142 321.089 166.195 322.526C160.947 324.434 159.754 331.33 160.326 336.884C160.796 341.432 161.922 345.885 163.605 350.121C165.012 353.663 166.825 357.04 168.959 360.206C174.579 368.533 182.513 375.311 191.799 379.17C196.867 381.276 202.213 382.546 207.625 383.525C209.282 383.827 210.943 384.102 212.604 384.363C211.696 382.842 210.792 381.323 209.883 379.805Z" fill="url(#paint7_linear_745_31)"/>
<path d="M422.39 478.782C422.043 480.88 421.69 482.989 421.017 485.007C420.466 486.655 419.004 488.545 417.388 487.894C416.934 487.708 416.578 487.342 416.274 486.956C414.939 485.265 414.346 483.104 413.99 480.98C412.96 475.913 413.079 459 419.516 456.825C429.18 453.563 422.941 475.488 422.39 478.782ZM348.655 323.321C346.97 325.241 345.902 327.633 345.926 330.247C345.985 337.101 352.085 342.543 358.532 344.869C364.981 347.199 372.001 347.337 378.661 348.966C380.802 349.489 382.894 350.2 384.935 351.031C387.019 351.878 389.033 352.889 390.974 354.032C395.782 356.86 400.1 360.52 403.583 364.879C406.645 368.71 408.933 372.821 410.612 377.098C411.694 379.848 412.507 382.665 413.083 385.534C415.926 399.695 412.955 415.001 407.18 428.438C404.826 433.917 402.472 439.399 400.117 444.882C399.568 446.157 399.018 447.433 398.47 448.709C398.624 447.764 398.778 446.816 398.93 445.868C401.298 431.082 403.201 416.325 397.794 402.882C397.781 402.85 397.768 402.815 397.752 402.784C396.802 400.43 395.643 398.177 394.412 395.955C392.4 392.315 390.204 388.764 388.42 385.009C385.723 379.332 383.845 372.998 379.3 368.655C378.719 368.097 378.066 367.598 377.371 367.157C372.646 364.161 365.768 363.987 362.825 368.607C362.634 368.912 362.502 369.239 362.356 369.559C360.687 373.222 362.012 377.831 364.464 381.151C370.789 389.708 383.125 392.994 390.55 399.941C392.439 401.707 393.995 403.729 395.066 406.121C395.312 406.672 395.565 407.218 395.756 407.808C396.692 410.71 396.482 414.452 393.914 416.094C391.775 417.461 388.834 416.747 386.831 415.186C386.069 414.593 385.418 413.88 384.803 413.135C383.807 411.926 382.933 410.601 382.011 409.33C381.043 407.991 379.996 406.72 378.88 405.516C371.051 397.077 359.868 391.983 348.523 389.506C335.561 386.679 322.163 386.87 308.901 386.557C301.624 386.383 294.354 386.004 287.094 385.52C277.919 384.909 268.764 384.046 259.637 382.94C257.195 384.347 254.789 385.825 252.388 387.301C251.206 388.033 250.02 388.762 248.837 389.49C264.234 391.347 279.68 392.568 295.171 392.184C306.913 391.895 318.763 390.712 330.387 392.024C332.18 392.226 333.969 392.479 335.751 392.812C342.058 393.996 348.163 396.129 353.877 399.046C356.526 400.398 359.087 401.918 361.542 403.597C366.292 406.844 370.63 410.682 374.421 415.003C376.36 417.213 378.169 419.537 379.796 421.991C385.289 430.26 388.969 440.065 390.499 450.153C390.958 453.17 391.218 456.206 391.278 459.242C391.405 465.731 390.617 472.182 388.782 478.278C388.264 479.986 387.73 481.734 386.686 483.185C385.639 484.631 383.97 485.759 382.183 485.671C380.094 485.573 378.369 483.83 377.634 481.873C376.898 479.913 376.948 477.76 377.007 475.667C377.168 469.92 377.266 464.583 376.836 459.285C376.601 456.416 376.207 453.557 375.585 450.651C375.022 448.018 374.277 445.35 373.275 442.596C370.657 435.389 366.358 428.126 359.268 425.201C352.179 422.276 342.193 426.117 341.359 433.737C341.234 434.88 341.314 435.978 341.539 437.043C342.204 440.212 344.224 443.063 346.567 445.735C348.003 447.374 349.556 448.949 350.981 450.487C360.151 460.381 367.315 472.582 358.597 482.793C357.496 484.08 356.158 485.338 354.523 486.556C351.96 488.463 349.351 490.357 346.694 492.184C342.785 494.877 338.767 497.424 334.618 499.647C330.704 501.744 326.669 503.537 322.503 504.915C319.258 505.988 315.935 506.813 312.515 507.295C309.951 507.654 307.323 507.827 304.9 508.745C302.672 509.586 300.726 511.02 298.81 512.433C297.861 513.133 296.963 513.863 296.042 514.579C293.742 516.367 291.487 518.189 289.272 520.032C285.431 523.225 281.617 526.438 277.522 529.476C270.735 534.51 264.322 540.228 256.639 543.745C248.953 547.256 239.45 548.207 232.343 543.637C230.163 542.236 228.381 540.439 226.793 538.437C225.006 536.184 223.47 533.67 221.935 531.134C219.824 527.651 217.704 524.142 214.888 521.281C212.274 518.624 207.387 514.494 203.356 515.137C200.819 515.543 196.806 518.643 196.206 521.243C195.632 523.716 195.667 526.335 196.101 528.919C196.691 532.436 198.052 535.871 199.813 538.777C199.878 538.885 199.936 539.002 200.002 539.108C204.024 545.551 210.247 550.338 216.816 554.152C222.817 557.636 229.35 560.455 236.256 561.102C239.928 561.448 243.584 561.162 247.176 560.432C253.449 559.158 259.532 556.514 265.177 553.414C269.199 551.207 273.074 548.755 276.908 546.236C284.433 541.29 291.785 536.057 299.67 531.714C311.57 525.156 325.385 520.653 338.701 523.364C344.211 524.482 348.094 526.663 351.373 529.565C353.222 531.201 354.884 533.073 356.53 535.11C357.754 534.396 358.981 533.686 360.207 532.977L431.726 491.481C433.708 490.33 435.7 489.199 437.667 488.033C437.844 483.068 438.488 478.093 439.59 473.213C440.301 470.055 441.204 466.936 442.296 463.888C444.778 456.988 448.227 450.444 452.638 444.632C454.596 442.056 456.724 439.605 458.875 437.178C460.494 435.35 462.121 433.533 463.704 431.681C465.973 429.033 468.143 426.314 470.04 423.387C475.014 415.695 477.914 405.802 474.401 397.338C474.106 396.625 473.755 395.973 473.375 395.35C468.961 388.072 459.45 387.082 455.35 394.828C455.142 395.22 454.93 395.611 454.75 396.048C451.114 404.97 452.861 414.785 450.509 424.173C450.061 425.969 449.477 427.75 448.66 429.502C448.504 429.844 448.322 430.178 448.149 430.517C445.508 435.782 441.501 440.692 435.883 442.306C426.464 445.015 419.824 445.85 419.476 433.773C419.466 433.368 419.491 432.966 419.496 432.561C419.534 428.911 420.169 425.277 421.031 421.678C421.85 418.257 422.851 414.865 423.69 411.537C426.142 401.813 428.087 392.071 427.12 382.134C426.962 380.53 426.748 378.921 426.429 377.305C426.166 375.978 425.836 374.662 425.467 373.351C422.036 361.149 414.055 349.946 402.445 345.064C401.316 344.589 400.152 344.174 398.973 343.794C396.529 343.005 394.001 342.379 391.496 341.737C385.276 340.143 379.179 338.443 374.806 333.924C371.553 330.564 369.591 325.937 366.443 322.608C365.558 321.671 364.597 320.821 363.463 320.15C358.668 317.31 352.247 319.228 348.655 323.321Z" fill="url(#paint8_linear_745_31)"/>
<path d="M274.039 427.152C273.476 428.236 273.122 429.444 273.051 430.651C272.978 431.886 273.201 433.118 273.809 434.212C276.176 438.465 282.643 438.6 287.529 437.201C295.316 434.971 302.141 430.436 309.778 427.789C313.55 426.482 317.472 425.657 321.42 425.111C324.557 424.674 329.142 425.041 331.824 423.11C332.132 422.888 332.438 422.597 332.472 422.221C332.511 421.781 332.169 421.406 331.838 421.117C327.187 417.033 320.505 415.652 314.557 414.795C313.725 414.676 312.886 414.603 312.048 414.513C310.117 414.305 308.18 414.154 306.24 414.16C305.594 414.163 304.91 414.214 304.249 414.233C303.236 414.26 302.238 414.269 301.2 414.342C293.355 414.9 284.985 416.839 279.046 421.594C278.179 422.29 277.343 423.029 276.567 423.813C275.569 424.823 274.68 425.917 274.039 427.152Z" fill="url(#paint9_linear_745_31)"/>
<path d="M454.718 351.392C455.135 354.709 455.22 358.068 455.201 361.427L455.201 361.658C455.119 367.167 453.247 372.604 456.087 377.679C458.091 381.256 463.638 385.007 467.96 383.641C472.244 382.286 473.131 376.019 472.376 372.307C470.971 365.389 468.149 358.893 465.552 352.364C465.228 351.557 464.883 350.766 464.524 349.985C463.235 347.183 461.735 344.512 460.186 341.863C459.07 339.943 457.927 338.032 456.831 336.086C453.614 330.387 449.891 324.972 445.716 319.931C444.743 318.761 443.332 317.483 441.9 317.999C442.132 321.498 443.87 324.693 445.558 327.764C448.193 332.555 450.792 337.428 452.623 342.592C452.868 343.272 453.098 343.957 453.31 344.649C453.995 346.867 454.431 349.119 454.718 351.392Z" fill="url(#paint10_linear_745_31)"/>
<path d="M334.123 495.269C340.578 493.098 344.523 487.06 349.173 482.473C349.255 482.391 349.335 482.303 349.418 482.223C351.538 480.168 352.42 477.132 348.342 477.504C344.871 477.821 341.343 479.141 338.32 480.829C334.914 482.726 331.895 485.33 329.594 488.482C328.351 490.187 327.31 492.56 328.505 494.295C328.745 494.644 329.051 494.901 329.391 495.111C330.69 495.914 332.586 495.788 334.123 495.269Z" fill="url(#paint11_linear_745_31)"/>
<path d="M195.864 187.743C195.56 186.888 194.397 186.721 193.52 186.955C192.644 187.19 191.793 187.672 190.892 187.574L190.176 189.337C187.719 189.911 185.205 190.51 183.1 191.898C180.997 193.292 179.352 195.661 179.543 198.176C179.592 198.826 179.77 199.487 180.177 200.003C180.327 200.191 180.498 200.347 180.681 200.479C182 201.419 184.089 200.926 185.632 200.133C188.703 198.555 191.354 196.202 193.349 193.387C194.26 192.097 195.049 190.722 195.655 189.266C195.855 188.781 196.04 188.237 195.864 187.743Z" fill="url(#paint12_linear_745_31)"/>
<path d="M260.002 435.43C257.729 435.175 255.47 435.872 253.291 436.565L253.392 437.17C250.856 438.493 247.894 440.669 248.551 443.455C249.234 446.355 253.116 446.871 256.084 446.575C258.243 446.359 260.467 446.019 262.302 444.861C264.136 443.703 265.487 441.52 265.044 439.394C264.577 437.154 262.273 435.682 260.002 435.43Z" fill="url(#paint13_linear_745_31)"/>
<path d="M621.503 634.233C616.073 628.364 602.874 614.829 588.832 600.595C582.716 594.393 576.441 588.063 570.576 582.176C570.328 581.923 570.073 581.669 569.822 581.419C557.832 569.385 547.691 559.347 544.401 556.341C541.45 553.63 538.644 551.478 535.776 549.792C533.502 548.454 531.183 547.411 528.723 546.637C525.105 545.494 521.172 544.91 516.58 544.782C507.161 544.524 497.745 544.203 488.339 543.498C482.294 543.039 476.235 542.546 470.195 541.914C468.311 541.727 466.165 541.162 464.295 541.335C462.474 541.505 460.773 541.929 458.973 541.312C456.475 540.461 455.482 538.513 454.152 536.389C453.336 535.069 452.586 533.672 452.28 532.148C452.071 531.089 452.091 529.971 452.323 528.91C452.547 527.919 453.162 527.281 453.582 526.372C454.032 525.386 454.505 524.42 455.147 523.557C456.627 521.57 458.468 519.631 459.666 517.426C460.474 515.938 460.996 514.333 460.889 512.499C460.827 511.422 460.537 510.348 460.145 509.298C459.591 507.818 458.826 506.377 458.15 505.038C455.859 500.537 454.487 495.708 452.307 491.113C451.121 488.6 449.435 486.355 447.348 484.554C446.657 483.956 445.879 483.422 444.992 483.311C442.603 483.011 439.664 485.502 437.683 486.689C437.563 486.761 437.442 486.826 437.322 486.9C435.356 488.067 433.364 489.197 431.382 490.348L359.863 531.844C358.637 532.553 357.409 533.263 356.186 533.978C355.315 534.486 354.446 535.001 353.566 535.496C351.552 536.631 347.933 537.942 347.007 540.164C346.943 540.315 346.909 540.469 346.872 540.627C346.7 541.337 346.763 542.098 346.913 542.827C347.431 545.542 348.555 548.114 350.149 550.391C353.059 554.56 356.558 558.152 359.339 562.374C360.741 564.515 362.268 567.037 364.444 568.457C368.278 570.945 372.776 569.455 376.905 568.954C377.975 568.827 379.05 568.894 380.117 568.996C381.124 569.08 381.975 568.869 382.956 569.161C383.992 569.483 384.962 570.027 385.778 570.738C386.955 571.75 387.797 573.094 388.531 574.466C389.387 576.044 390.231 577.431 390.464 579.045C390.555 579.681 390.561 580.353 390.418 581.089C390.098 582.731 389.132 583.913 388.189 585.184C388.056 585.365 387.922 585.539 387.792 585.725C386.722 587.257 386.146 589.399 385.376 591.126C382.919 596.692 380.35 602.192 377.735 607.674C376.106 611.1 374.408 614.493 372.685 617.872C370.517 622.121 368.296 626.34 366.051 630.549C365.645 631.307 365.244 632.068 364.838 632.826C359.341 643.106 358.435 651.151 361.061 662.722C361.588 665.037 362.885 670.043 364.662 676.695C365.336 679.221 366.081 681.986 366.878 684.929C368.184 689.749 369.633 695.05 371.158 700.592C378.304 726.544 387.085 757.668 390.436 768.303C391.055 770.258 393.322 771.134 395.097 770.104L620.752 639.176C621.86 638.532 622.42 637.345 622.339 636.175C622.292 635.484 622.018 634.798 621.503 634.233Z" fill="#243A72"/>
<path d="M474.363 546.165C471.632 545.969 468.914 545.626 466.216 545.176C465.275 545.32 464.332 545.468 463.392 545.615C463.545 545.675 463.696 545.741 463.852 545.8C468.155 547.539 472.713 548.537 477.111 550.035C484.03 552.394 490.474 555.966 496.823 559.618C497.533 560.03 498.271 560.475 498.879 561.034C499.704 560.381 500.541 559.723 501.351 559.045C506.723 554.621 512.624 549.285 519.488 547.152C516.787 546.502 513.882 546.125 510.623 545.999C498.541 545.524 486.442 547.044 474.363 546.165Z" fill="#141B2D"/>
<path d="M379.514 566.91C379.669 566.928 379.829 566.939 379.984 566.958C382.64 567.313 385.13 567.959 386.971 569.585C388.688 571.092 390.681 574.17 391.643 576.431C391.643 576.431 391.642 576.428 391.645 576.427C390.683 574.169 388.688 571.092 386.973 569.584C385.13 567.959 382.639 567.313 379.984 566.958C380.564 566.674 381.132 566.374 381.706 566.082C380.981 566.383 380.25 566.657 379.514 566.91Z" fill="#141B2D"/>
<path d="M367.275 553.596C365.654 554.457 363.983 555.322 362.752 556.687C362.043 557.469 361.514 558.462 361.309 559.493C363.394 562.549 366.769 564.586 370.319 565.677C370.913 565.859 371.557 565.985 372.21 566.103C373.184 565.73 374.145 565.24 375.079 564.825C377.877 563.574 380.9 562.995 383.918 562.385C382.192 562.369 380.647 561.328 379.349 560.187C377.698 558.729 376.222 557.014 375.386 554.974C374.553 552.94 374.447 550.968 375.339 549.053C372.683 550.623 370 552.147 367.275 553.596Z" fill="#141B2D"/>
<path d="M437.03 532.305C438.61 531.398 440.207 530.523 441.843 529.721C443.663 528.835 445.533 528.042 447.263 526.993C448.856 526.021 450.3 524.845 451.69 523.596C452.179 522.617 452.685 521.626 453.142 520.594C454.791 516.867 454.828 512.456 453.23 508.704C452.948 508.041 452.613 507.392 452.276 506.751C451.823 506.386 451.337 506.087 450.809 505.894C450.222 506.085 449.611 506.219 449 506.34C446.408 506.857 443.889 507.769 441.565 509.033C441.043 509.317 440.525 509.601 440.008 509.888C440.524 510.227 440.907 510.756 441.24 511.287C442.81 513.809 443.951 516.603 444.591 519.509C444.874 520.778 445.049 522.148 444.541 523.343C443.886 524.897 442.259 525.775 440.708 526.441C440.391 526.577 440.046 526.713 439.705 526.651C439.205 526.561 438.876 526.084 438.621 525.644C437.437 523.638 436.428 521.518 435.048 519.639C434.446 518.6 433.384 517.639 432.442 516.917C431.842 516.46 430.523 515.93 430.339 515.069C427.11 516.689 423.814 518.179 420.336 519.361C419.214 519.742 417.881 520.063 416.916 519.367C417.355 519.685 421.368 517.446 421.963 517.168C423.733 516.349 425.482 515.483 427.207 514.576C433.668 511.185 440.189 507.714 446.439 503.9C447.828 503.051 449.293 502.049 450.155 500.719C450.082 499.479 450.18 498.223 450.104 496.971C449.83 492.896 446.777 487.001 442.202 486.385C439.943 486.08 437.193 488.438 435.322 489.551C433.357 490.723 431.36 491.845 429.384 492.994L428.175 493.697C428.843 493.733 429.4 494.212 429.872 494.685C432.203 497.041 434.004 499.917 435.106 503.041C435.764 504.914 436.128 507.149 434.97 508.765C434.04 510.058 432.387 510.591 430.828 510.93C429.944 511.122 428.97 511.273 428.165 510.851C427.699 510.608 427.344 510.198 427.016 509.786C424.974 507.237 423.4 504.156 420.609 502.463C419.724 501.929 418.742 501.562 417.73 501.374C417.037 501.242 416.052 501.386 415.426 501.094L362.052 532.063C360.071 533.21 358.118 534.38 356.122 535.502C353.675 536.882 349.66 537.92 349.909 541.318C350.149 544.417 351.469 548.223 353.497 550.884C355.9 551.344 358.218 551.915 360.744 551.624C362.831 551.382 364.901 550.974 366.928 550.406C369.326 549.737 371.661 548.84 373.895 547.738C377.125 546.143 380.777 544.663 383.608 542.51C387.176 539.798 390.905 537.194 394.609 534.674C396.752 533.215 398.951 531.833 401.26 530.65C402.888 529.815 405.444 529.346 406.825 528.189C402.324 531.911 397.304 534.924 392.391 538.072C392.539 538.002 392.685 537.925 392.832 537.854C391.877 538.289 390.957 539.212 390.088 539.811C389.161 540.45 388.225 541.072 387.283 541.682C386.076 542.46 384.84 543.186 383.606 543.919C383.068 544.272 382.528 544.623 381.985 544.971L382.1 545.126C383.298 547.142 384.343 549.202 385.382 551.313C386.21 552.991 387.047 554.689 388.247 556.123C389.364 557.46 390.853 558.538 392.545 558.92C394.629 558.012 396.701 557.078 398.765 556.129C399.266 555.787 399.767 555.444 400.265 555.105C407.09 550.442 414.101 546.063 421.168 541.773C426.224 538.252 431.527 535.084 437.03 532.305Z" fill="#141B2D"/>
<path d="M395.797 695.364C402.687 693.109 409.092 689.37 414.313 684.323C416.091 682.61 417.756 680.744 419.65 679.17C417.281 675.486 414.918 671.798 412.525 668.129C406.074 658.242 399.513 648.428 392.722 638.768C391.01 636.337 389.271 633.924 387.542 631.502C387.018 630.767 385.996 629.645 385.459 628.511C383.175 628.975 380.926 629.601 378.759 630.411C374.783 631.891 370.701 635.759 367.927 638.908C366.56 640.478 365.335 642.185 364.337 644.009C363.355 645.833 363.184 647.238 363.15 649.301C363.144 649.556 363.159 649.809 363.161 650.065C363.436 652.616 363.919 655.131 364.475 657.503C367.689 671.292 371.76 684.929 375.691 698.547L375.985 698.487C382.633 697.153 389.247 697.502 395.797 695.364Z" fill="#141B2D"/>
<path d="M367.616 631.204C369.819 629.939 372.411 629.504 374.914 628.998C376.585 628.656 378.234 628.252 379.867 627.798C381.079 627.364 382.306 626.936 383.52 626.502C383.814 626.395 384.112 626.294 384.406 626.184C386.167 622.372 387.782 618.492 389.231 614.564C391.909 607.298 394.048 599.829 395.642 592.245C396.427 588.505 397.085 584.738 397.591 580.949C397.623 580.708 397.64 580.47 397.659 580.231C396.62 580.996 395.637 581.825 394.765 582.772C392.019 585.755 390.654 589.631 388.467 592.964C385.05 601.46 380.453 609.504 375.881 617.47C374.623 619.654 373.37 621.842 372.115 624.025C371.054 625.868 370.007 627.711 368.815 629.471C368.424 630.057 368.017 630.628 367.616 631.204Z" fill="#141B2D"/>
<path d="M421.969 605.697C422.109 605.306 422.25 604.93 422.303 604.64C422.454 603.774 422.522 602.9 422.522 602.027C422.535 599.633 422.107 597.257 421.843 594.876C421.473 591.606 421.386 588.3 420.827 585.044C420.454 582.873 419.877 580.733 419.497 578.551C419.254 577.092 419.087 575.64 418.947 574.169C418.885 573.553 418.89 572.923 418.828 572.307C418.769 571.677 418.399 571.104 418.035 570.602C417.716 570.16 417.358 569.714 416.854 569.5C416.606 569.391 416.37 569.351 416.141 569.354C412.485 571.461 408.786 573.495 405.128 575.6C405.177 575.7 405.219 575.807 405.253 575.913C407.144 581.549 406.833 587.649 407.58 593.54C407.989 596.834 408.733 600.084 409.066 603.399C409.411 606.793 409.343 610.299 409.795 613.669C413.593 611.304 417.346 608.821 421.085 606.318C421.384 606.11 421.67 605.905 421.969 605.697Z" fill="#141B2D"/>
<path d="M447.531 527.574C448.479 527.2 449.421 526.817 450.375 526.461C450.228 526.832 450.11 527.206 449.987 527.585C450.11 527.206 450.231 526.828 450.378 526.46C450.528 526.073 450.701 525.69 450.874 525.311C449.845 526.146 448.71 526.89 447.531 527.574Z" fill="#141B2D"/>
<path d="M420.512 566.732C420.506 566.736 420.502 566.74 420.498 566.741C420.499 566.744 420.501 566.747 420.502 566.75C420.505 566.746 420.507 566.739 420.512 566.732Z" fill="#141B2D"/>
<path d="M408.959 571.611C406.859 572.576 404.748 573.527 402.611 574.406C402.421 574.679 402.047 574.802 401.705 574.862C401.613 574.881 401.52 574.878 401.429 574.893C401.041 575.044 400.649 575.171 400.26 575.315C400.699 575.242 401.137 575.168 401.572 575.061C404.309 574.383 406.802 573.016 409.195 571.503C409.116 571.535 409.038 571.573 408.959 571.611Z" fill="#141B2D"/>
<path d="M517.776 555.448C497.735 564.662 479.463 577.246 460.397 588.358C458.022 589.76 455.627 591.126 453.217 592.464C449.263 594.644 445.338 596.997 441.465 599.464C434.277 604.066 427.281 609.087 420.696 614.299C419.699 615.086 418.715 615.89 417.966 616.916C416.751 618.555 416.284 620.609 415.966 622.629C415.127 628.076 415.313 633.68 416.5 639.056C418.463 647.886 419.997 656.597 422.843 665.259C423.967 668.686 425.226 672.064 426.529 675.423C428.027 674.896 429.56 674.456 431.08 674.025C453.049 667.775 474.764 660.149 495.02 649.675C497.54 644.582 499.971 639.447 502.307 634.266C510.289 616.562 517.149 598.357 522.547 579.705C525.008 571.178 527.17 562.502 527.913 553.683C527.22 553.492 526.515 553.348 525.79 553.307C522.999 553.142 520.311 554.282 517.776 555.448Z" fill="#141B2D"/>
<path d="M452.759 539.796C452.965 540.176 453.191 540.568 453.349 540.974C453.402 540.942 453.449 540.91 453.498 540.878C453.186 540.451 452.89 539.994 452.628 539.503L452.759 539.796Z" fill="#141B2D"/>
<path d="M428.129 574.422C430.102 582.098 432.393 589.694 434.981 597.189C438.582 594.918 442.229 592.737 445.95 590.736C453.491 586.681 461.374 583.337 469.072 579.595L469.456 579.326C469.103 579.16 468.763 578.938 468.435 578.71C459.324 572.34 450.61 565.399 442.374 557.934C441.15 556.819 439.846 555.656 438.219 555.333C437.955 555.28 437.689 555.265 437.427 555.256C433.09 558.165 428.882 561.282 424.535 564.184C424.693 564.218 424.853 564.27 425.01 564.344C427.107 565.336 427.583 572.293 428.129 574.422Z" fill="#141B2D"/>
<path d="M400.286 751.118C398.563 750.915 396.857 750.498 395.123 750.506C393.942 750.514 390.468 750.926 389.792 752.002C389.624 752.271 389.561 752.593 389.517 752.909C389.104 755.887 390.195 758.776 392.433 760.709C394.926 762.857 397.295 762.544 400.207 761.342C412.296 756.339 423.713 749.713 434.055 741.698C428.27 742.848 422.923 745.518 417.461 747.748C412 749.978 406.144 751.8 400.286 751.118Z" fill="#141B2D"/>
<path d="M362.603 552.827C360.926 553.315 359.191 553.458 357.457 553.328C357.04 553.297 355.881 552.866 355.613 553.362C355.269 554.001 356.699 554.865 357.137 555.033C358.079 555.398 359.132 555.338 360.127 555.164C362.241 554.791 364.262 553.904 365.969 552.606C364.953 552.046 363.713 552.501 362.603 552.827Z" fill="#141B2D"/>
<path d="M423.821 609.924C424.367 609.513 424.877 609.056 425.41 608.628C424.642 609.191 423.889 609.782 423.159 610.397C423.376 610.234 423.607 610.09 423.821 609.924Z" fill="#141B2D"/>
<path d="M397.47 447.709C398.018 446.434 398.568 445.158 399.117 443.882C398.732 444.217 398.339 444.547 397.929 444.868C397.777 445.816 397.624 446.764 397.47 447.709Z" fill="#D8925F"/>
<path d="M419.65 679.17C417.756 680.744 416.091 682.61 414.313 684.323C409.092 689.37 402.687 693.109 395.797 695.364C389.247 697.502 382.633 697.153 375.985 698.487L375.691 698.547C376.345 700.805 376.992 703.062 377.628 705.326C380.284 714.7 382.764 724.129 386.699 733.072C388.182 736.432 389.919 739.828 392.75 742.188C394.5 743.632 396.593 744.633 398.748 745.35C400.95 746.092 403.236 746.576 405.545 746.611C410.442 746.714 415.141 744.846 419.655 742.952C425.669 740.432 431.632 737.796 437.549 735.064C438.173 734.48 438.747 733.913 439.182 733.361C441.118 730.906 442.442 727.986 442.955 724.931L441.02 712.897L440.923 712.648C439.915 710.158 438.775 707.739 437.591 705.339C432.325 698.948 427.846 691.922 423.372 684.939C422.139 683.011 420.888 681.094 419.65 679.17Z" fill="#0F1625"/>
<path d="M465.48 701.941C470.091 694.664 474.562 687.281 478.87 679.822C484.559 669.945 489.961 659.906 495.014 649.692C495.017 649.688 495.019 649.682 495.02 649.675C474.764 660.149 453.049 667.775 431.08 674.025C429.56 674.456 428.027 674.896 426.529 675.423C428.886 681.487 431.448 687.476 434.057 693.433C436.982 700.105 439.927 706.751 442.897 713.395C443.435 714.597 444.128 715.796 444.839 716.997C445.56 717.771 446.312 718.516 447.139 719.183C449.541 721.13 451.924 721.942 454.313 722.063C454.257 721.874 454.196 721.693 454.159 721.481C453.239 716.182 462.712 706.306 465.48 701.941Z" fill="#0F1625"/>
<path d="M532.951 555.87C531.334 555.013 529.663 554.163 527.913 553.683C527.17 562.502 525.008 571.178 522.547 579.705C517.149 598.357 510.289 616.562 502.307 634.266C499.971 639.447 497.54 644.582 495.02 649.675C495.019 649.682 495.017 649.688 495.014 649.692C499.169 647.543 503.264 645.274 507.285 642.871C530.866 628.783 551.963 609.895 565.985 586.292C554.224 574.318 543.604 563.623 538.772 558.95C536.835 557.922 534.894 556.899 532.951 555.87Z" fill="#18203A"/>
<path d="M507.285 642.871C503.264 645.274 499.169 647.543 495.014 649.692C489.961 659.906 484.559 669.945 478.87 679.822C474.562 687.281 470.091 694.664 465.48 701.941C462.712 706.306 453.239 716.182 454.159 721.481C454.196 721.693 454.257 721.874 454.313 722.063C459.422 722.327 464.559 719.403 469.937 717.471C471.613 716.865 473.317 716.35 475.041 715.899L596.59 645.378C598.051 643.616 599.356 641.724 600.903 640.036C602.063 638.767 603.393 637.58 604.08 636.004C604.445 635.164 604.609 634.26 604.77 633.361C605.174 631.144 605.573 628.841 604.987 626.667C604.96 626.566 604.919 626.468 604.885 626.365C595.538 616.526 579.977 600.526 565.985 586.292C551.963 609.895 530.866 628.783 507.285 642.871Z" fill="#151E36"/>
<path d="M447.531 527.574C445.892 528.532 444.162 529.381 442.493 530.224C422.858 540.113 405.859 554.738 385.99 564.154C384.602 564.812 383.167 565.482 381.706 566.082C381.132 566.374 380.564 566.674 379.984 566.958C382.639 567.313 385.13 567.959 386.973 569.584C388.688 571.092 390.683 574.169 391.645 576.427C392.136 575.827 393.188 575.882 394.612 575.803C396.498 575.695 398.396 575.631 400.26 575.315C400.649 575.171 401.041 575.044 401.429 574.893C400.013 575.125 398.565 575.178 397.139 575.017C396.882 574.988 396.617 574.948 396.405 574.8C396.193 574.652 396.062 574.416 395.94 574.187C394.155 570.92 392.116 568.317 389.372 565.83C388.122 564.697 388.183 564.328 389.668 563.451C391.254 562.512 392.923 561.694 394.602 560.94C395.183 560.675 395.865 560.424 396.439 560.705C396.689 560.826 396.881 561.034 397.065 561.244C400.038 564.667 401.38 569.167 402.643 573.517C402.716 573.762 402.789 574.029 402.699 574.269C402.68 574.323 402.641 574.362 402.611 574.406C404.748 573.527 406.859 572.576 408.959 571.611C409.038 571.573 409.116 571.535 409.195 571.503C409.798 571.121 410.398 570.733 410.99 570.341C425.317 560.855 438.751 550.036 453.349 540.974C453.191 540.568 452.965 540.176 452.759 539.796L452.628 539.503L452.623 539.495C452.19 538.75 451.809 537.983 451.409 537.341C451.243 537.078 451.084 536.806 450.929 536.534C450.439 535.676 450.025 534.778 449.756 533.84C449.701 533.645 449.633 533.452 449.593 533.254C449.168 531.178 449.424 529.342 449.987 527.585C450.11 527.206 450.228 526.832 450.375 526.461C449.421 526.817 448.479 527.2 447.531 527.574Z" fill="#0F1625"/>
<path d="M433.154 534.575C434.441 533.81 435.729 533.048 437.03 532.305C431.527 535.084 426.224 538.252 421.168 541.773C425.154 539.358 429.148 536.96 433.154 534.575Z" fill="#0F1625"/>
<path d="M414.038 570.25C412.826 570.938 411.615 571.606 410.392 572.255C408.507 573.274 406.609 574.241 404.693 575.181L404.858 575.257C404.985 575.338 405.063 575.463 405.128 575.6C408.786 573.495 412.485 571.461 416.141 569.354C415.377 569.355 414.703 569.865 414.038 570.25Z" fill="#243A72"/>
<path d="M381.985 544.971C382.528 544.623 383.068 544.272 383.606 543.919C383.051 544.251 382.512 544.604 381.953 544.928L381.985 544.971Z" fill="#243A72"/>
<path d="M409.85 614.105C413.664 611.622 417.378 608.964 421.085 606.318C417.346 608.821 413.593 611.304 409.795 613.669L409.85 614.105Z" fill="#243A72"/>
<path d="M567.128 585.046C569.235 587.456 571.309 589.898 573.456 592.272C578.976 598.401 584.946 604.098 590.909 609.79C592.003 610.832 593.102 611.879 594.327 612.763C594.153 610.861 592.844 609.284 591.572 607.862C590.084 606.193 588.566 604.555 587.043 602.915C582.617 598.134 578.185 593.355 573.609 588.714C571.505 586.582 569.374 584.474 567.239 582.373C565.231 580.393 563.224 578.416 561.22 576.439C560.64 575.865 558.291 572.818 557.269 573.026C557.053 573.07 556.891 573.259 556.826 573.651C556.551 575.237 560.392 577.752 561.427 578.815C563.398 580.828 565.277 582.928 567.128 585.046Z" fill="#20305C"/>
<path d="M377.806 715.836C376.504 709.667 375.729 703.399 374.457 697.221C373.548 692.815 372.38 688.433 370.613 684.283C370.212 683.341 369.829 682.06 369.193 681.254C368.534 680.418 368.242 680.358 368.18 681.366C368.054 683.454 369.148 686.211 369.56 688.277C370.086 690.914 370.612 693.552 371.139 696.192C373.577 708.409 376.023 720.661 379.973 732.479C380.601 734.357 381.271 736.237 382.239 737.964C382.58 738.568 383.126 739.236 383.81 739.116C384.123 736.189 382.994 733.323 381.994 730.554C380.262 725.752 378.861 720.832 377.806 715.836Z" fill="#7599CD"/>
<path d="M454.478 540.892C454.472 540.896 454.469 540.897 454.467 540.901C449.462 544.656 444.284 548.174 438.948 551.436C433.946 554.495 428.739 557.39 424.661 561.602L423.316 562.989C426.818 559.952 430.733 557.473 434.7 555.062C435.076 554.832 435.454 554.602 435.831 554.375C437.528 553.348 439.232 552.323 440.907 551.266C442.982 549.956 445.018 548.597 446.966 547.109C448.339 546.057 449.789 544.896 451.516 544.799C453.761 544.668 456.014 546.391 458.12 545.604C458.853 545.33 459.449 544.786 460.126 544.389C460.137 544.38 460.151 544.371 460.165 544.365C460.504 544.168 460.857 544.03 461.216 543.917C464.122 542.973 467.643 544.266 470.608 543.195C469.05 542.876 467.457 543.491 465.864 543.52C464.863 543.536 463.877 543.32 462.898 543.106C461.05 542.699 459.202 542.292 457.352 541.885C456.805 541.765 456.244 541.641 455.763 541.351C454.462 540.57 454.022 538.791 452.702 538.039C453.297 538.992 453.887 539.942 454.478 540.892Z" fill="#7599CD"/>
<path d="M380.843 604.946C381.184 604.173 381.506 603.384 381.7 602.563L380.8 603.387C380.637 603.586 380.443 603.766 380.289 603.973C379.782 604.649 379.463 605.524 379.084 606.277C377.691 609.045 376.296 611.813 374.736 614.489C374.245 615.337 373.73 616.183 373.456 617.121C373.709 616.92 373.91 616.657 374.108 616.401C376.79 612.861 379.058 609.011 380.843 604.946Z" fill="#7599CD"/>
<path d="M418.947 574.169C419.087 575.64 419.254 577.092 419.497 578.551C419.877 580.733 420.454 582.873 420.827 585.044C421.386 588.3 421.473 591.606 421.843 594.876C422.107 597.257 422.535 599.633 422.522 602.027C422.522 602.9 422.454 603.774 422.303 604.64C422.25 604.93 422.109 605.306 421.969 605.697C421.67 605.905 421.384 606.11 421.085 606.318C417.378 608.964 413.664 611.622 409.85 614.105L409.795 613.669C409.343 610.299 409.411 606.793 409.066 603.399C408.733 600.084 407.989 596.834 407.58 593.54C406.833 587.649 407.144 581.549 405.253 575.913C405.219 575.807 405.177 575.7 405.128 575.6C405.063 575.463 404.985 575.338 404.858 575.257L404.693 575.181C406.609 574.241 408.507 573.274 410.392 572.255C411.615 571.606 412.826 570.938 414.038 570.25C414.703 569.865 415.377 569.355 416.141 569.354C416.37 569.351 416.606 569.391 416.854 569.5C417.358 569.714 417.716 570.16 418.035 570.602C418.399 571.104 418.769 571.677 418.828 572.307C418.89 572.923 418.885 573.553 418.947 574.169ZM411.966 656.601C412.082 657.369 413.014 661.426 412.288 661.774C411.237 662.279 409.468 659.136 409.01 658.513C404.595 652.444 400.177 646.378 395.762 640.313C394.644 638.778 393.527 637.243 392.408 635.708C391.504 634.465 389.598 632.699 389.189 631.224C388.716 629.518 390.782 629.564 391.967 629.254C393.622 628.824 395.242 628.279 396.879 627.79C397.736 627.535 398.594 627.298 399.458 627.097C400.809 626.785 402.434 626.583 403.388 627.588C403.788 628.008 403.992 628.576 404.182 629.123C405.433 632.708 406.683 636.294 407.765 639.936C408.286 641.702 408.614 643.566 409.208 645.304C410.466 648.976 411.381 652.764 411.966 656.601ZM460.397 588.358C463.343 586.501 466.279 584.625 469.216 582.751C472.148 580.888 475.406 579.503 477.782 576.918C477.971 576.71 478.152 576.37 477.945 576.183L477.606 576.083C474.511 575.945 471.935 577.589 469.456 579.326L469.072 579.595C468.227 580.195 467.39 580.791 466.54 581.32C462.992 583.54 459.437 585.727 455.82 587.826C451.183 590.505 446.471 593.052 441.612 595.307C439.52 596.286 437.399 597.195 435.257 598.056C434.921 598.19 434.591 598.335 434.254 598.47C433.342 598.827 431.89 599.657 430.636 599.978C429.64 600.233 428.772 600.159 428.363 599.303C426.388 595.095 425.284 590.541 424.364 586.006C423.651 582.505 422.861 579.026 422.44 575.478C422.114 572.69 421.887 569.879 420.747 567.279C420.685 567.129 420.599 566.943 420.502 566.75C420.501 566.747 420.499 566.744 420.498 566.741C420.302 566.352 420.04 565.945 419.708 565.828C418.747 565.488 417.31 566.703 416.647 567.236C412.356 570.636 407.551 573.361 402.45 575.324C399.163 576.58 393.779 577.346 391.35 580.355C391.109 580.657 390.862 580.955 390.683 581.301C390.206 582.221 390.025 583.247 389.572 584.162C389.007 585.265 388.491 586.39 387.945 587.506C386.868 589.743 385.785 591.972 384.703 594.201C384.23 595.189 383.761 596.161 383.396 597.186C383.282 597.497 383.172 597.842 383.242 598.172C384.924 595.242 386.721 592.373 388.628 589.595C388.729 589.443 388.832 589.291 388.936 589.141C389.618 588.136 390.307 587.132 390.883 586.061C391.17 585.536 391.347 584.906 391.682 584.428C392.079 583.878 392.631 583.387 393.116 582.907C394.543 581.487 396.106 580.215 397.771 579.072C397.715 579.441 397.69 579.834 397.659 580.231C397.64 580.47 397.623 580.708 397.591 580.949C397.085 584.738 396.427 588.505 395.642 592.245C394.048 599.829 391.909 607.298 389.231 614.564C387.782 618.492 386.167 622.372 384.406 626.184C384.112 626.294 383.814 626.395 383.52 626.502C382.306 626.936 381.079 627.364 379.867 627.798C376.557 628.968 373.263 630.141 369.954 631.311C368.268 631.904 366.281 632.085 365.278 633.641C364.146 635.405 363.342 637.436 362.487 639.334C361.992 640.433 361.512 641.535 361.102 642.673C360.922 643.147 360.751 643.639 360.605 644.129C359.376 648.29 360.023 652.099 360.161 656.302C360.292 660.728 361.642 665.007 363.413 669.097C363.648 669.65 364.039 670.284 364.634 670.245C365.455 670.2 365.59 669.052 365.472 668.234C364.895 664.102 364.304 659.963 363.713 655.827C363.443 653.92 363.186 651.994 363.161 650.065C363.159 649.809 363.144 649.556 363.15 649.301C363.184 647.238 363.355 645.833 364.337 644.009C365.335 642.185 366.56 640.478 367.927 638.908C370.701 635.759 374.783 631.891 378.759 630.411C380.926 629.601 383.175 628.975 385.459 628.511C385.996 629.645 387.018 630.767 387.542 631.502C389.271 633.924 391.01 636.337 392.722 638.768C399.513 648.428 406.074 658.242 412.525 668.129C414.918 671.798 417.281 675.486 419.65 679.17C420.888 681.094 422.139 683.011 423.372 684.939C427.846 691.922 432.325 698.948 437.591 705.339C438.413 706.339 439.251 707.324 440.114 708.287C433.973 694.642 427.948 680.945 422.017 667.205C418.69 655.97 415.771 644.618 414.307 633.005C413.652 627.737 413.449 621.876 416.743 617.712C416.897 617.511 417.071 617.323 417.246 617.137C418.757 614.555 420.843 612.341 423.159 610.397C423.889 609.782 424.642 609.191 425.41 608.628C426.368 607.93 427.344 607.262 428.321 606.635C432.533 603.945 437.034 601.776 441.465 599.464C445.338 596.997 449.263 594.644 453.217 592.464C455.627 591.126 458.022 589.76 460.397 588.358Z" fill="#7599CD"/>
<path d="M525.069 546.663C522.272 546.051 522.586 548.334 521.147 550.094C528.991 551.489 535.933 554.081 541.432 560.168C541.452 559.285 540.996 558.47 540.52 557.728C540.12 557.114 539.663 556.544 539.21 555.966C537.17 553.345 534.629 551.129 531.757 549.453C531.554 549.335 531.369 549.191 531.161 549.08C529.27 548.043 527.184 547.125 525.069 546.663Z" fill="#7599CD"/>
<path d="M402.611 574.406C402.641 574.362 402.68 574.323 402.699 574.269C402.789 574.029 402.716 573.762 402.643 573.517C401.38 569.167 400.038 564.667 397.065 561.244C396.881 561.034 396.689 560.826 396.439 560.705C395.865 560.424 395.183 560.675 394.602 560.94C392.923 561.694 391.254 562.512 389.668 563.451C388.183 564.328 388.122 564.697 389.372 565.83C392.116 568.317 394.155 570.92 395.94 574.187C396.062 574.416 396.193 574.652 396.405 574.8C396.617 574.948 396.882 574.988 397.139 575.017C398.565 575.178 400.013 575.125 401.429 574.893C401.52 574.878 401.613 574.881 401.705 574.862C402.047 574.802 402.421 574.679 402.611 574.406Z" fill="#7599CD"/>
<path d="M363.284 555.436C362.623 555.658 361.964 555.883 361.302 556.105C360.885 556.246 360.466 556.387 360.03 556.463C358.925 556.647 357.749 556.357 356.845 555.699C356.405 555.379 355.612 554.175 355.288 555.027C355.153 555.38 355.282 555.832 355.558 556.321C356.379 557.781 358.517 559.587 359.053 560.148L359.363 560.342C359.594 560.361 359.725 560.093 359.805 559.877C359.814 559.85 359.833 559.824 359.844 559.797C360.517 558.058 361.918 556.712 363.284 555.436Z" fill="#7599CD"/>
<path d="M388.247 556.123C387.047 554.689 386.21 552.991 385.382 551.313C384.343 549.202 383.298 547.142 382.1 545.126L381.985 544.971L381.953 544.928C382.512 544.604 383.051 544.251 383.606 543.919C384.84 543.186 386.076 542.46 387.283 541.682C388.225 541.072 389.161 540.45 390.088 539.811C390.957 539.212 391.877 538.289 392.832 537.854C392.685 537.925 392.539 538.002 392.391 538.072C385.609 541.234 379.604 545.784 372.983 549.244C371.165 550.192 368.969 550.808 367.264 551.868C367.582 552.861 370.457 550.956 371.015 550.686C372.633 549.901 374.237 549.086 375.835 548.258L375.6 548.525C375.5 548.702 375.422 548.877 375.339 549.053C374.447 550.968 374.553 552.94 375.386 554.974C376.222 557.014 377.698 558.729 379.349 560.187C380.647 561.328 382.192 562.369 383.918 562.385C383.93 562.382 383.941 562.389 383.954 562.39L384.317 562.363C383.161 562.46 381.646 563.431 380.555 563.857C379.171 564.394 377.786 564.926 376.395 565.44C373.881 566.377 371.796 567.473 369.149 566.653C369.117 566.64 369.087 566.637 369.054 566.625C367.529 566.127 366.085 565.376 364.803 564.406C363.593 563.491 362.862 562.404 361.253 562.295C361.912 564.784 364.399 566.763 366.665 567.739C367.077 567.918 367.499 568.071 367.928 568.206C369.274 568.627 370.676 568.83 372.081 568.895C373.443 568.954 374.095 568.705 375.271 568.153C375.529 568.035 375.795 567.925 376.055 567.809C378.834 566.566 381.732 565.548 384.5 564.269C390.576 561.458 396.456 558.219 402.08 554.586C400.98 555.11 399.873 555.616 398.765 556.129C396.701 557.078 394.629 558.012 392.545 558.92C390.853 558.538 389.364 557.46 388.247 556.123Z" fill="#7599CD"/>
<path d="M452.276 506.751C452.945 507.287 453.53 507.967 453.993 508.686C455.038 510.317 455.684 512.189 456.836 513.748C457.344 509.811 456.377 505.404 453.261 502.945C453.243 502.93 453.221 502.916 453.202 502.901C452.998 502.745 452.78 502.596 452.531 502.54C452.131 502.449 451.718 502.589 451.346 502.762C450.231 503.276 449.278 504.086 448.215 504.709C447.003 505.428 445.668 505.896 444.348 506.377C443.477 506.695 442.383 506.992 441.831 507.821C441.196 508.773 441.843 508.507 442.661 508.178C443.983 507.644 445.278 507.027 446.579 506.45C447.466 506.057 448.381 505.661 449.349 505.637C449.856 505.624 450.346 505.722 450.809 505.894C451.337 506.087 451.823 506.386 452.276 506.751Z" fill="#7599CD"/>
<path d="M504.054 559.748C503.882 559.999 501.812 560.172 501.419 560.286C500.56 560.542 499.722 560.872 498.918 561.27C497.427 562.005 496.231 563.077 494.779 563.882C491.323 565.802 488.151 568.224 485.397 571.058C487.088 570.571 488.634 569.69 490.159 568.817C493.118 567.12 496.078 565.424 499.038 563.727C500.911 562.655 502.845 561.53 504.054 559.748Z" fill="#7599CD"/>
<path d="M304.074 365.198C301.613 364.803 299.13 364.566 296.637 364.484C285.42 364.125 274.088 366.881 264.489 372.703C276.398 365.276 289.059 359.052 302.214 354.142C286.654 352.944 270.813 354.012 255.86 358.48C252.704 359.428 249.571 360.547 246.552 361.895C251.094 354.895 255.943 348.096 261.063 341.507C263.429 338.461 265.854 335.461 268.339 332.509C280.696 317.832 294.484 304.359 309.488 292.395C310.26 291.778 311.084 291.091 311.297 290.125C311.721 288.243 309.73 286.838 308.466 285.38C303.41 279.532 307.777 271.016 310.713 265.287C310.947 264.829 311.159 264.367 311.381 263.909C312.572 261.407 313.582 258.886 314.588 256.369C315.859 253.179 317.142 249.999 318.846 246.889C321.714 241.666 324.303 236.295 326.639 230.82C327.658 228.429 328.642 226.026 329.556 223.596C332.574 215.573 335.013 207.332 336.834 198.941C337.356 196.532 337.834 194.113 338.305 191.692C335.429 201.577 328.998 208.175 321.61 214.831C320.383 215.937 319.184 217.085 318.003 218.258C316.471 219.783 314.979 221.363 313.506 222.974C307.572 229.443 302.031 236.442 296.257 242.857C287.56 252.51 278.83 262.132 270.083 271.752C265.711 276.564 261.33 281.378 256.959 286.194C256.564 286.628 256.035 287.145 255.431 287.712C253.25 289.761 249.991 292.554 247.598 295.178C246.042 296.883 244.852 298.514 244.589 299.816C244.948 298.025 245.365 296.251 245.823 294.49C246.253 292.838 246.723 291.199 247.234 289.575C247.656 288.766 248.118 287.978 248.572 287.187C253.499 278.617 260.315 270.935 267.089 263.623C280.544 249.104 294.327 234.8 307.474 219.996C309.079 218.184 310.677 216.366 312.263 214.539C320.053 205.568 327.562 196.375 334.592 186.814C336.883 183.701 339.133 180.555 341.311 177.356C337.409 180.724 333.552 184.146 329.738 187.612C321.382 195.202 313.26 203.046 305.34 211.092C302.939 213.526 300.538 215.964 298.179 218.439C284.249 233.067 271.042 248.387 258.632 264.327C266.36 251.109 276.182 238.9 286.453 227.519C289.114 224.575 291.818 221.663 294.54 218.762C297.205 215.924 299.888 213.101 302.571 210.278C309.724 202.753 316.864 195.222 323.62 187.394C326.171 184.441 328.662 181.44 331.081 178.386C334.839 173.639 338.428 168.76 341.741 163.672C348.153 153.829 353.506 143.378 358.613 132.78C361.372 127.078 364.062 121.324 366.811 115.618C367.778 113.6 368.758 111.602 369.742 109.606C369.94 109.209 370.129 108.814 370.324 108.417C371.028 107.016 371.724 105.623 372.438 104.236C372.938 103.261 373.462 102.3 373.966 101.331C375.851 97.7465 377.772 94.1861 379.775 90.6749C388.724 74.9592 398.892 59.944 410.145 45.791C410.916 44.824 411.697 43.8641 412.476 42.9049C413.461 41.6846 414.458 40.4774 415.463 39.2781C420.867 32.8101 428.566 28.2668 436.049 24.4057C435.519 24.4133 434.994 24.4167 434.462 24.4339C417.331 24.7381 400.279 27.1856 383.726 31.5657C382.842 31.7922 381.961 32.0306 381.086 32.2804C358.059 38.6705 336.059 48.8043 316.236 62.1418L316.228 62.1433C315.378 62.7104 314.541 63.2809 313.704 63.8611C308.21 67.6685 302.891 71.722 297.765 76.018C296.212 77.3098 294.68 78.6256 293.164 79.9696L293.157 79.971C284.863 87.3297 277.135 95.3149 270.091 103.897C268.161 106.248 266.234 108.723 265.424 111.657C264.84 113.735 264.854 115.929 264.879 118.096C264.893 119.564 264.905 121.029 264.918 122.494C264.948 125.774 264.978 129.053 265.006 132.331C265.053 137.572 265.098 142.817 265.146 148.055C265.014 147.729 264.878 147.393 264.752 147.059L264.747 147.044L264.745 147.032L264.741 147.017C264.346 146.021 263.98 145.016 263.618 144.01C263.292 143.106 262.986 142.195 262.686 141.282C262.502 140.722 262.306 140.164 262.131 139.599C262.11 139.531 262.089 139.467 262.068 139.399C261.709 138.233 261.374 137.058 261.057 135.881C261.032 135.789 261.008 135.7 260.983 135.611C260.973 135.572 260.963 135.533 260.953 135.495C260.813 134.972 260.695 134.446 260.564 133.918C260.313 132.902 260.073 131.884 259.849 130.862C259.795 130.617 259.75 130.372 259.698 130.126C259.516 129.274 259.339 128.422 259.181 127.565C259.142 127.341 259.11 127.116 259.072 126.893C258.923 126.053 258.779 125.212 258.652 124.371C258.611 124.101 258.571 123.831 258.533 123.56C258.38 122.489 258.244 121.418 258.125 120.344C258.091 120.041 258.063 119.743 258.034 119.446C257.918 118.308 257.812 117.172 257.733 116.033C257.74 116.141 257.698 116.278 257.636 116.428C257.614 116.486 257.581 116.546 257.548 116.609C257.487 116.728 257.416 116.855 257.325 116.989L257.189 117.192C257.076 117.35 256.949 117.513 256.81 117.688C256.76 117.749 256.714 117.811 256.662 117.872C256.467 118.106 256.259 118.348 256.03 118.601C255.072 119.663 253.848 120.853 252.77 121.889L251.744 122.88C251.139 123.466 250.659 123.939 250.427 124.218C247.851 127.273 245.373 130.395 242.99 133.593C242.529 134.218 242.067 134.841 241.61 135.472C240.72 136.689 239.848 137.914 238.989 139.156L238.983 139.163C238.819 139.403 238.65 139.647 238.485 139.884C238.314 140.126 238.153 140.371 237.989 140.608L237.651 141.102C237.169 141.82 236.688 142.537 236.215 143.259C234.951 145.181 233.722 147.111 232.528 149.084C232.191 149.615 231.866 150.154 231.545 150.707C231.375 150.992 231.208 151.28 231.04 151.564C230.636 152.238 230.232 152.905 229.843 153.588C228.496 155.921 227.214 158.291 225.96 160.676C223.502 165.357 221.204 170.123 219.105 174.975C218.464 176.479 217.651 178.08 216.989 179.717C216.868 180.014 216.752 180.31 216.645 180.61C216.633 180.644 216.625 180.676 216.611 180.714C216.482 181.072 216.368 181.43 216.261 181.789C216.231 181.892 216.188 181.995 216.16 182.101L216.126 182.236C216.107 182.315 216.087 182.391 216.068 182.467L216.043 182.563L216.025 182.632L215.998 182.735L215.991 182.77L215.99 182.793L215.95 182.992C215.947 183.005 215.945 183.018 215.943 183.031L215.913 183.174L215.849 183.557C215.839 183.621 215.83 183.686 215.822 183.747C215.794 183.94 215.77 184.133 215.759 184.317C215.743 184.536 215.733 184.754 215.736 184.969C215.739 186.536 216.183 188.317 216.744 190.112C217.053 191.101 217.387 192.097 217.727 193.07L217.734 193.094C217.836 193.373 217.933 193.657 218.026 193.933C218.24 194.549 218.449 195.142 218.628 195.716C218.75 196.095 218.86 196.454 218.952 196.808C216.703 196.032 215.093 195.739 213.874 195.903C211.625 196.203 210.726 198.085 209.744 201.533L209.263 203.239L209.269 203.263C208.07 207.75 207.015 212.27 206.116 216.834C206.039 217.228 205.966 217.625 205.887 218.02C205.708 218.964 205.535 219.906 205.367 220.851L205.368 220.86C204.992 222.99 204.651 225.134 204.347 227.273C204.306 227.544 204.273 227.817 204.237 228.09C204.198 228.367 204.156 228.648 204.122 228.924C204.019 229.627 203.933 230.336 203.846 231.039C203.78 231.544 203.724 232.044 203.669 232.556C203.618 232.967 203.568 233.38 203.529 233.783C203.457 234.423 203.39 235.063 203.327 235.711C203.271 236.239 203.224 236.761 203.176 237.287C203.165 237.393 203.154 237.495 203.144 237.6C203.082 238.305 203.022 238.999 202.973 239.697C202.941 240.12 202.908 240.537 202.869 240.961L202.857 241.06L202.845 241.16L202.847 241.166L202.855 241.195C202.792 242.097 202.731 243.007 202.683 243.906L202.694 243.941L202.684 243.968L202.679 244.001L202.67 244.084C202.602 245.337 202.542 246.588 202.498 247.837C202.47 248.418 202.454 249.003 202.435 249.589C202.379 251.782 202.358 253.992 202.403 256.202C202.42 256.993 202.444 257.783 202.477 258.571C202.493 259.028 202.514 259.493 202.539 259.945C202.578 260.676 202.625 261.405 202.687 262.134C202.723 262.683 202.776 263.233 202.828 263.782C202.856 264.077 202.886 264.381 202.922 264.68C203.024 265.664 203.152 266.646 203.301 267.623C203.357 268.015 203.42 268.403 203.484 268.781C203.519 269.012 203.557 269.233 203.596 269.453C203.731 270.243 203.89 271.027 204.056 271.807C204.16 272.287 204.271 272.765 204.39 273.241C204.449 273.511 204.515 273.773 204.582 274.038C204.697 274.481 204.826 274.921 204.951 275.358C205.767 278.222 206.812 280.995 208.15 283.637C209.033 285.382 210.039 287.074 211.19 288.689C209.175 290.354 206.027 288.023 203.197 285.91C201.826 284.887 200.529 283.918 199.472 283.475C198.15 282.918 196.782 282.47 195.388 282.114C195.385 282.112 195.381 282.11 195.377 282.11C195.373 282.105 195.368 282.1 195.362 282.095L193.632 281.72L193.546 281.7C193.548 281.703 193.55 281.706 193.553 281.708C193.032 281.611 192.511 281.519 191.986 281.451C190.732 281.295 185.871 282.02 185.091 281.434C185.971 282.094 186.826 282.806 187.66 283.559C187.882 283.752 188.096 283.946 188.305 284.148L188.546 284.375C188.784 284.601 189.026 284.837 189.26 285.074C189.533 285.338 189.793 285.608 190.054 285.883C190.27 286.111 190.487 286.343 190.704 286.574C190.932 286.825 191.15 287.084 191.373 287.339C191.646 287.647 191.921 287.948 192.186 288.266C192.875 289.09 193.543 289.943 194.192 290.819L194.239 290.882C194.708 291.519 195.156 292.182 195.606 292.842C195.735 293.034 195.875 293.219 196.004 293.415C196.087 293.539 196.172 293.668 196.254 293.796C196.767 294.583 197.265 295.383 197.746 296.199C197.831 296.342 197.918 296.487 198.003 296.632C198.526 297.537 199.035 298.447 199.518 299.372C199.692 299.706 199.861 300.051 200.027 300.383C200.168 300.655 200.304 300.937 200.438 301.217L200.531 301.404C200.71 301.784 200.891 302.164 201.064 302.554C201.309 303.08 201.542 303.618 201.773 304.159C202.226 305.225 202.66 306.307 203.051 307.383C203.255 307.907 203.436 308.428 203.617 308.96L203.627 308.996C204.16 310.565 204.627 312.129 205.024 313.675C205.15 314.179 205.268 314.68 205.386 315.179C200 310.421 195.566 305.186 190.152 300.684C188.45 299.268 186.635 297.937 184.678 296.704C184.502 296.593 184.342 296.469 184.162 296.359C184.301 296.521 184.419 296.688 184.554 296.849C186.124 298.72 187.541 300.62 188.83 302.564C193.234 309.202 196.249 316.262 199.509 323.771C200.442 325.919 201.356 328.071 202.256 330.229C203.253 332.617 204.235 335.015 205.196 337.424C205.21 337.455 205.225 337.505 205.24 337.54C206.185 340.023 208.542 350.263 210.48 351.227C206.819 349.399 203.151 347.568 199.487 345.737C197.415 344.703 195.345 343.669 193.274 342.634C193.068 342.532 192.862 342.427 192.655 342.325C190.205 341.102 187.757 339.878 185.307 338.654C186.091 340.075 186.879 341.483 187.678 342.898C188.194 343.81 188.714 344.722 189.234 345.63C189.386 345.896 189.538 346.163 189.691 346.429C189.916 346.821 190.141 347.217 190.366 347.609C191.48 349.548 192.607 351.482 193.735 353.409C194.199 354.203 194.674 354.989 195.141 355.783C195.989 357.222 196.84 358.658 197.695 360.093C198.44 361.347 199.178 362.608 199.925 363.861C200.62 365.019 201.315 366.176 202.008 367.331C202.703 368.489 203.396 369.646 204.089 370.804C204.253 371.078 204.416 371.351 204.58 371.621C206.017 374.014 207.448 376.412 208.883 378.805C209.793 380.323 210.696 381.842 211.604 383.363C211.896 383.851 212.188 384.339 212.48 384.828C212.54 384.928 212.601 385.029 212.661 385.132C212.756 385.294 212.853 385.453 212.948 385.615C215.522 389.949 218.079 394.293 220.583 398.666C220.844 399.123 221.101 399.581 221.359 400.035C221.274 397.461 221.189 394.89 221.103 392.32C221.069 391.297 221.034 390.275 221 389.252C220.881 385.768 220.757 382.279 220.624 378.786C220.602 378.211 220.585 377.639 220.562 377.062C220.553 376.788 220.547 376.508 220.537 376.234C220.467 374.349 220.411 372.461 220.502 370.574C220.319 366.643 220.201 362.709 220.145 358.771C220.008 349.194 220.29 339.608 220.883 330.04C221.022 327.787 221.137 325.535 221.315 323.29C221.835 316.763 222.526 310.248 223.365 303.753C223.508 302.641 223.671 301.528 223.824 300.418C224.299 296.969 224.82 293.528 225.386 290.093C225.469 289.581 225.562 289.074 225.646 288.563C226.802 281.703 228.138 274.875 229.649 268.081C229.833 267.258 230.014 266.43 230.204 265.609C230.627 263.755 231.06 261.908 231.512 260.064C231.628 259.583 231.754 259.104 231.872 258.626C233.205 253.258 234.618 247.91 236.171 242.6C237.279 238.799 238.46 235.019 239.682 231.254C239.71 231.163 239.741 231.076 239.77 230.985C241.155 226.723 242.625 222.488 244.152 218.275C244.703 216.755 245.237 215.229 245.806 213.715C249.593 203.664 253.786 193.768 258.362 184.06C258.565 183.631 258.777 183.209 258.98 182.783C261.572 177.334 264.264 171.933 267.098 166.61C267.468 165.915 267.862 165.231 268.238 164.539C268.399 164.24 268.565 163.946 268.727 163.647C270.176 160.984 271.65 158.335 273.16 155.706C273.913 154.395 274.68 153.094 275.448 151.792C277.941 147.565 280.502 143.38 283.158 139.257C283.679 138.451 284.22 137.659 284.745 136.854C293.412 123.636 302.896 110.982 313.252 99.1113C310.878 102.494 308.588 105.926 306.297 109.355C302.432 115.142 298.64 120.972 295.016 126.9C289.732 135.522 284.746 144.305 280.004 153.211C277.355 158.189 274.769 163.199 272.295 168.265C272.166 168.529 272.028 168.788 271.9 169.052C271.171 170.549 270.477 172.061 269.765 173.567C269.532 174.058 269.297 174.547 269.067 175.041C260.012 194.343 252.257 214.222 245.839 234.525C244.787 237.852 243.769 241.188 242.788 244.536C235.224 270.435 229.795 296.964 226.656 323.81C225.954 329.805 225.395 335.817 224.921 341.84C224.888 342.263 224.851 342.684 224.819 343.11C224.746 344.06 224.652 345.012 224.584 345.965L224.583 346.037C223.907 355.584 223.511 365.165 223.384 374.761L224.146 380.971C224.004 379.905 223.851 378.834 223.716 377.763C223.596 376.858 223.498 375.946 223.383 375.039C223.375 375.401 223.373 375.758 223.373 376.124C223.678 378.375 224.009 380.623 224.357 382.865C224.385 383.054 224.416 383.241 224.447 383.429C224.73 385.255 225.027 387.079 225.328 388.902C225.38 389.22 225.429 389.538 225.483 389.856C225.639 390.807 225.805 391.756 225.96 392.701C226.43 395.494 226.933 398.28 227.453 401.066C234.249 396.872 241.045 392.684 247.837 388.491C249.02 387.762 250.206 387.033 251.388 386.302C253.789 384.825 256.195 383.347 258.637 381.94C261.31 380.396 264.027 378.939 266.836 377.671C266.895 377.646 266.951 377.613 267.009 377.589C274.677 374.147 282.816 372.193 291.143 371.124C294.239 370.727 297.36 370.452 300.495 370.272C306.952 369.909 313.461 369.941 319.894 370.124C314.901 367.69 309.55 366.07 304.074 365.198Z" fill="#141B2D"/>
<path d="M215.759 184.317C215.743 184.536 215.733 184.754 215.736 184.969C215.735 184.563 215.769 184.158 215.822 183.747C215.794 183.94 215.77 184.133 215.759 184.317Z" fill="#203551"/>
<path d="M216.043 182.563L216.025 182.632L215.998 182.735L215.991 182.77L215.99 182.793L215.913 183.174L215.849 183.557C215.904 183.195 215.978 182.832 216.068 182.467L216.043 182.563Z" fill="#203551"/>
<path d="M216.16 182.101L216.126 182.236C216.165 182.09 216.216 181.939 216.261 181.789C216.231 181.892 216.188 181.995 216.16 182.101Z" fill="#203551"/>
<path d="M275.453 151.744C275.45 151.761 275.448 151.777 275.448 151.792C277.941 147.565 280.502 143.38 283.158 139.257C283.16 139.248 283.162 139.241 283.165 139.231C284.997 131.743 286.812 124.251 288.679 116.778C290.64 108.96 292.781 101.161 295.834 93.6781C298.768 86.4852 302.633 79.7043 306.957 73.2648C309.111 70.0577 311.381 66.9398 313.704 63.8611C308.21 67.6685 302.891 71.722 297.765 76.018C290.397 87.6103 285.313 100.519 281.847 113.797C278.606 126.241 276.743 138.968 275.453 151.744Z" fill="#203551"/>
<path d="M265.146 148.055C265.014 147.729 264.878 147.393 264.752 147.059L264.747 147.044C265.779 152.646 267.122 158.187 268.727 163.647C270.176 160.984 271.65 158.335 273.16 155.706C273.161 155.693 273.161 155.684 273.163 155.671C273.823 148.405 274.654 141.154 275.782 133.937C278.155 118.737 281.913 103.679 288.267 89.6233C289.752 86.3457 291.381 83.12 293.157 79.971C284.863 87.3297 277.135 95.3149 270.091 103.897C268.161 106.248 266.234 108.723 265.424 111.657C264.84 113.735 264.854 115.929 264.879 118.096C264.893 119.564 264.905 121.029 264.918 122.494C264.948 125.774 264.978 129.053 265.006 132.331C265.053 137.572 265.098 142.817 265.146 148.055Z" fill="#203551"/>
<path d="M295.499 97.1667C292.7 104.698 290.717 112.499 288.805 120.288C287.452 125.783 286.11 131.285 284.765 136.778C284.759 136.804 284.752 136.831 284.745 136.854C293.412 123.636 302.896 110.982 313.252 99.1113C310.878 102.494 308.588 105.926 306.297 109.355C320.137 91.7979 335.955 75.6629 354.427 61.242C375.373 44.8883 408.844 30.0957 434.462 24.4339C417.331 24.7381 400.279 27.1856 383.726 31.5657C380.01 34.2264 376.298 36.902 372.596 39.5819C364.488 45.4664 356.365 51.3413 348.721 57.8294C341.143 64.2602 334.304 71.3858 327.931 79.0145C321.378 86.8737 315.11 94.9785 308.754 102.998C302.559 110.803 296.173 118.519 290.992 127.06C290.669 127.58 289.829 127.118 290.15 126.59C295.964 117.019 303.244 108.405 310.186 99.6465C316.558 91.6238 322.803 83.4923 329.476 75.7152C336.021 68.0828 343.164 61.0988 350.944 54.7396C358.718 48.3816 366.887 42.5349 375.017 36.6491C377.032 35.1881 379.058 33.7313 381.086 32.2804C358.059 38.6705 336.059 48.8043 316.236 62.1418L316.228 62.1433C307.902 72.9414 300.27 84.3088 295.499 97.1667Z" fill="#203551"/>
<path d="M219.472 279.033C214.659 270.041 209.556 261.129 205.583 251.735C204.511 249.186 203.522 246.593 202.694 243.941L202.684 243.968L202.679 244.001L202.67 244.084C202.602 245.337 202.542 246.588 202.498 247.837C203.916 259.693 206.947 271.41 212.058 282.214C214.882 288.168 218.341 293.833 222.457 298.977C222.692 299.267 223.223 299.789 223.824 300.418C224.299 296.969 224.82 293.528 225.386 290.093C225.377 290.076 225.369 290.062 225.36 290.044C223.398 286.372 221.436 282.705 219.472 279.033Z" fill="#203551"/>
<path d="M212.984 211.69C214.902 217.509 216.95 223.286 219.142 229.005C222.97 239.039 227.218 248.901 231.855 258.589C231.861 258.6 231.868 258.615 231.872 258.626C233.205 253.258 234.618 247.91 236.171 242.6C237.279 238.799 238.46 235.019 239.682 231.254C233.708 224.459 229.51 216.287 225.41 208.201C222.847 203.17 220.297 198.128 217.734 193.094C217.836 193.373 217.933 193.657 218.026 193.933C218.24 194.549 218.449 195.142 218.628 195.716C218.75 196.095 218.86 196.454 218.952 196.808C216.703 196.032 215.093 195.739 213.874 195.903C211.625 196.203 210.726 198.085 209.744 201.533L209.753 201.562C210.763 204.965 211.874 208.329 212.984 211.69Z" fill="#203551"/>
<path d="M258.973 182.759C258.975 182.768 258.978 182.774 258.98 182.783C261.572 177.334 264.264 171.933 267.098 166.61C267.468 165.915 267.862 165.231 268.238 164.539C264.557 157.053 261.042 149.468 258.68 141.477C256.49 134.076 255.335 126.253 256.03 118.601C255.072 119.663 253.848 120.853 252.77 121.889C252.532 124.673 252.375 127.468 252.28 130.256C251.704 147.982 253.977 165.752 258.973 182.759Z" fill="#203551"/>
<path d="M209.231 280.219C205.817 272.598 203.397 264.474 202.403 256.202C202.42 256.993 202.444 257.783 202.477 258.571C202.493 259.028 202.514 259.493 202.539 259.945C202.578 260.676 202.625 261.405 202.687 262.134C202.723 262.683 202.776 263.233 202.828 263.782C202.856 264.077 202.886 264.381 202.922 264.68C203.024 265.664 203.152 266.646 203.301 267.623C203.357 268.015 203.42 268.403 203.484 268.781C203.519 269.012 203.557 269.233 203.596 269.453C203.731 270.243 203.89 271.027 204.056 271.807C204.16 272.287 204.271 272.765 204.39 273.241C204.449 273.511 204.515 273.773 204.582 274.038C204.697 274.481 204.826 274.921 204.951 275.358C205.767 278.222 206.812 280.995 208.15 283.637C209.033 285.382 210.039 287.074 211.19 288.689C209.175 290.354 206.027 288.023 203.197 285.91C201.826 284.887 200.529 283.918 199.472 283.475C198.15 282.918 196.782 282.47 195.388 282.114C195.385 282.112 195.381 282.11 195.377 282.11C195.779 282.501 196.175 282.9 196.564 283.299C202.614 289.48 207.525 296.679 211.87 304.123C214.105 307.941 216.304 311.828 218.185 315.827C220.044 319.784 221.425 324.012 220.809 328.425C220.774 328.635 220.644 328.743 220.493 328.77C220.48 328.773 220.467 328.766 220.455 328.769C220.598 329.19 220.745 329.614 220.883 330.04C221.022 327.787 221.137 325.535 221.315 323.29C221.835 316.763 222.526 310.248 223.365 303.753C222.31 302.374 221.318 300.742 220.902 300.157C216.392 293.898 212.395 287.265 209.231 280.219Z" fill="#203551"/>
<path d="M216.645 180.61C216.633 180.644 216.625 180.676 216.611 180.714C216.733 180.379 216.856 180.047 216.989 179.717C216.868 180.014 216.752 180.31 216.645 180.61Z" fill="#203551"/>
<path d="M244.152 218.275C236.436 200.91 233.034 181.636 234.432 162.682C236.403 177.885 239.504 192.939 243.701 207.68C244.286 209.733 244.907 211.785 245.806 213.715C249.593 203.664 253.786 193.768 258.362 184.06C258.361 184.057 258.361 184.054 258.359 184.051C257.171 180.103 256.12 176.113 255.231 172.097C251.646 155.962 250.477 139.338 251.744 122.88C251.139 123.466 250.659 123.939 250.427 124.218C247.851 127.273 245.373 130.395 242.99 133.593C242.529 134.218 242.067 134.841 241.61 135.472C240.949 149.686 243.691 163.852 246.422 177.836C244.463 176.091 243.555 173.475 242.841 170.95C241.53 166.263 240.635 161.469 240.042 156.642C239.332 150.837 239.057 144.997 238.983 139.163C238.819 139.403 238.65 139.647 238.485 139.884C238.314 140.126 238.153 140.371 237.989 140.608L237.651 141.102C237.169 141.82 236.688 142.537 236.215 143.259C234.951 145.181 233.722 147.111 232.528 149.084C232.191 149.615 231.866 150.154 231.545 150.707C231.375 150.992 231.208 151.28 231.04 151.564C230.636 152.238 230.232 152.905 229.843 153.588C228.496 155.921 227.214 158.291 225.96 160.676C223.502 165.357 221.204 170.123 219.105 174.975C218.464 176.479 217.651 178.08 216.989 179.717C220.846 197.935 230.332 214.734 239.77 230.985C241.155 226.723 242.625 222.488 244.152 218.275Z" fill="#203551"/>
<path d="M203.846 231.039C203.78 231.544 203.724 232.044 203.669 232.556C203.618 232.967 203.568 233.38 203.529 233.783C203.457 234.423 203.39 235.063 203.327 235.711C203.271 236.239 203.224 236.761 203.176 237.287C203.165 237.393 203.154 237.495 203.144 237.6C203.082 238.305 203.022 238.999 202.973 239.697C202.941 240.12 202.908 240.537 202.869 240.961L202.857 241.06L202.845 241.16L202.847 241.166L202.855 241.195C205.334 250.124 209.582 258.464 213.914 266.622C217.806 273.93 221.715 281.219 225.621 288.515C225.629 288.532 225.638 288.548 225.646 288.563C226.802 281.703 228.138 274.875 229.649 268.081C229.641 268.07 229.635 268.062 229.627 268.051C226.515 263.867 223.606 259.526 220.916 255.057C214.689 244.705 209.61 233.655 205.799 222.187C205.652 221.744 205.51 221.304 205.368 220.86C204.992 222.99 204.651 225.134 204.347 227.273C204.306 227.544 204.273 227.817 204.237 228.09C204.198 228.367 204.156 228.648 204.122 228.924C204.019 229.627 203.933 230.336 203.846 231.039Z" fill="#203551"/>
<path d="M230.187 265.584C230.193 265.592 230.197 265.598 230.204 265.609C230.627 263.755 231.06 261.908 231.512 260.064C231.509 260.055 231.505 260.05 231.501 260.041C229.029 254.936 226.676 249.771 224.428 244.561C219.433 232.961 214.992 221.124 211.135 209.096C210.516 207.162 209.878 205.217 209.269 203.263C208.07 207.75 207.015 212.27 206.116 216.834C208.558 225.006 211.629 232.994 215.323 240.671C219.522 249.4 224.496 257.747 230.187 265.584Z" fill="#203551"/>
<path d="M185.091 281.434C185.971 282.094 186.826 282.806 187.66 283.559C187.882 283.752 188.096 283.946 188.305 284.148L188.546 284.375C188.784 284.601 189.026 284.837 189.26 285.074C189.533 285.338 189.793 285.608 190.054 285.883C190.27 286.111 190.487 286.343 190.704 286.574C190.932 286.825 191.15 287.084 191.373 287.339C191.646 287.647 191.921 287.948 192.186 288.266C191.916 287.761 191.675 287.25 191.441 286.734C196.721 289.119 200.747 293.412 204.152 297.927C207.499 302.357 210.384 307.091 213.01 311.947C215.679 316.893 218.073 322.043 219.972 327.34C219.974 327.324 219.979 327.307 219.979 327.292C220.343 322.439 218.198 317.815 215.999 313.595C210.019 302.139 203.089 290.564 193.553 281.708C193.032 281.611 192.511 281.519 191.986 281.451C190.732 281.295 185.871 282.02 185.091 281.434Z" fill="#203551"/>
<path d="M212.661 385.132C212.756 385.294 212.853 385.453 212.948 385.615C212.792 385.353 212.636 385.09 212.48 384.828C212.54 384.928 212.601 385.029 212.661 385.132Z" fill="#203551"/>
<path d="M202.008 367.331C202.703 368.489 203.396 369.646 204.089 370.804C204.253 371.078 204.416 371.351 204.58 371.621C202.275 367.784 199.982 363.941 197.695 360.093C198.44 361.347 199.178 362.608 199.925 363.861C200.62 365.019 201.315 366.176 202.008 367.331Z" fill="#203551"/>
<path d="M187.678 342.898C201.199 350.907 210.286 364.272 218.872 377.167C218.916 377.064 218.941 376.959 218.976 376.855C218.996 380.669 218.982 386.808 220.74 388.992C220.824 389.097 220.913 389.167 221 389.252C220.881 385.768 220.757 382.279 220.624 378.786C220.18 377.718 219.714 376.658 219.228 375.608C219.134 375.421 219.048 375.229 218.953 375.035C218.953 375.032 218.952 375.029 218.949 375.027C217.469 371.904 215.803 368.884 213.957 365.958C207.966 356.473 200.176 348.163 191.124 341.566L195.594 343.796C205.229 351.681 213.202 361.546 218.842 372.654C218.74 372.281 218.629 371.906 218.515 371.541C213.712 356.175 207.599 341.244 201.5 326.33C198.231 318.351 194.911 310.276 189.678 303.353C202.112 318.216 210.23 335.928 218.208 353.431C220.093 350.013 219.061 345.916 217.878 342.301C214.803 332.921 211.007 323.785 207.206 314.665C205.342 310.181 203.473 305.685 200.919 301.541C200.475 300.809 200 300.088 199.518 299.372C199.692 299.706 199.861 300.051 200.027 300.383C200.168 300.655 200.304 300.937 200.438 301.217L200.531 301.404C200.71 301.784 200.891 302.164 201.064 302.554C201.309 303.08 201.542 303.618 201.773 304.159C202.226 305.225 202.66 306.307 203.051 307.383C203.255 307.907 203.436 308.428 203.617 308.96L203.627 308.996C204.16 310.565 204.627 312.129 205.024 313.675C205.15 314.179 205.268 314.68 205.386 315.179C200 310.421 195.566 305.186 190.152 300.684C188.45 299.268 186.635 297.937 184.678 296.704C184.502 296.593 184.342 296.469 184.162 296.359C184.301 296.521 184.419 296.688 184.554 296.849C186.124 298.72 187.541 300.62 188.83 302.564C193.234 309.202 196.249 316.262 199.509 323.771C200.442 325.919 201.356 328.071 202.256 330.229C203.253 332.617 204.235 335.015 205.196 337.424C205.21 337.455 205.225 337.505 205.24 337.54C206.185 340.023 208.542 350.263 210.48 351.227C206.819 349.399 203.151 347.568 199.487 345.737C197.415 344.703 195.345 343.669 193.274 342.634C193.068 342.532 192.862 342.427 192.655 342.325C190.205 341.102 187.757 339.878 185.307 338.654C186.091 340.075 186.879 341.483 187.678 342.898Z" fill="#203551"/>
<path d="M193.735 353.409C194.199 354.203 194.674 354.989 195.141 355.783C192.62 351.507 190.12 347.218 187.678 342.898C188.569 344.469 189.47 346.048 190.366 347.609C191.48 349.548 192.607 351.482 193.735 353.409Z" fill="#203551"/>
<path d="M230.604 383.918C239.736 376.837 249.493 370.558 259.723 365.181C246.903 368.834 234.837 375.085 224.447 383.429C224.73 385.255 225.027 387.079 225.328 388.902C227.195 387.477 229.081 385.101 230.604 383.918Z" fill="#203551"/>
<path d="M220.537 376.234C220.467 374.349 220.411 372.461 220.502 370.574C220.319 366.643 220.201 362.709 220.145 358.771C219.302 363.404 218.897 368.118 218.925 372.828C219.489 373.947 220.023 375.087 220.537 376.234Z" fill="#203551"/>
<path d="M226.656 323.81C225.954 329.805 225.395 335.817 224.921 341.84C224.928 342.193 224.924 342.541 224.921 342.892C224.89 342.967 224.851 343.037 224.819 343.11C224.746 344.06 224.652 345.012 224.584 345.965L224.583 346.037C223.907 355.584 223.511 365.165 223.384 374.761L224.146 380.971C224.004 379.905 223.851 378.834 223.716 377.763C223.596 376.858 223.498 375.946 223.383 375.039C223.375 375.401 223.373 375.758 223.373 376.124C223.678 378.375 224.009 380.623 224.357 382.865C227.669 375.508 231.515 368.393 235.882 361.607C241.579 352.754 248.119 344.478 254.65 336.223C262.79 325.923 270.931 315.625 279.072 305.328C282.082 301.521 285.104 297.7 288.612 294.349C292.674 290.463 297.439 287.142 300.359 282.343C290.936 286.257 282.025 291.4 273.921 297.603C283.454 287.051 292.651 276.195 301.495 265.06C304.402 261.402 307.287 257.687 309.48 253.561C308.037 253.385 306.742 254.383 305.637 255.328C281.593 275.828 259.212 298.279 238.785 322.385C234.346 327.621 229.968 332.985 226.753 339.052C226.111 340.259 225.537 341.506 224.985 342.757C225.501 330.557 228.029 318.452 232.392 307.048C236.934 295.175 244.151 285.739 250.619 275.027C246.832 277.599 243.42 280.724 240.526 284.275C245.329 272.274 251.294 260.742 258.31 249.888C265.641 238.547 274.095 227.98 282.531 217.434C292.866 204.52 303.2 191.605 313.533 178.687C290.075 192.651 269.469 211.382 253.338 233.405C276.992 179.821 318.668 136.731 355.292 91.0207C318.02 121.966 282.22 156.469 260.443 199.741C254.787 210.986 250.152 222.692 245.839 234.525C244.787 237.852 243.769 241.188 242.788 244.536C235.224 270.435 229.795 296.964 226.656 323.81Z" fill="#203551"/>
<path d="M332.226 159.659C341.025 150.702 349.815 141.737 358.613 132.78C361.372 127.078 364.062 121.324 366.811 115.618C363.764 119.936 360.465 124.092 357.176 128.234C348.862 138.711 340.546 149.181 332.226 159.659Z" fill="#203551"/>
<path d="M361.284 116.663C364.378 114.009 367.495 111.345 370.324 108.417C371.028 107.016 371.724 105.623 372.438 104.236C372.938 103.261 373.462 102.3 373.966 101.331C375.851 97.7465 377.772 94.1861 379.775 90.6749C351.21 115.395 324.211 141.92 298.978 170.031C319.744 152.247 340.512 134.455 361.284 116.663Z" fill="#203551"/>
<path d="M348.956 78.0724C338.478 86.2315 328.676 95.2421 319.666 104.999C309.932 115.552 301.099 126.922 292.097 138.089C288.048 143.117 283.938 148.096 280.004 153.211C277.355 158.189 274.769 163.199 272.295 168.265C277.203 159.075 284.129 151.011 290.634 142.939C299.613 131.802 308.411 120.473 317.922 109.788C326.658 99.9552 336.181 90.8227 346.395 82.5326C356.491 74.3416 367.282 66.9856 378.602 60.5801C388.715 54.861 399.267 49.9007 410.145 45.791C410.916 44.824 411.697 43.8641 412.476 42.9049C401.963 46.7055 391.74 51.2798 381.897 56.5748C370.335 62.8012 359.312 70.0069 348.956 78.0724Z" fill="#203551"/>
<path d="M269.223 174.794C269.388 174.375 269.591 173.98 269.765 173.567C269.532 174.058 269.297 174.547 269.067 175.041C269.124 174.964 269.185 174.895 269.223 174.794Z" fill="#203551"/>
<path d="M284.745 136.854C284.22 137.659 283.679 138.451 283.158 139.257C280.502 143.38 277.941 147.565 275.448 151.792C274.68 153.094 273.913 154.395 273.16 155.706C271.65 158.335 270.176 160.984 268.727 163.647C268.565 163.946 268.399 164.24 268.238 164.539C267.862 165.231 267.468 165.915 267.098 166.61C264.264 171.933 261.572 177.334 258.98 182.783C258.777 183.209 258.565 183.631 258.362 184.06C253.786 193.768 249.593 203.664 245.806 213.715C245.237 215.229 244.703 216.755 244.152 218.275C242.625 222.488 241.155 226.723 239.77 230.985C239.741 231.076 239.71 231.163 239.682 231.254C238.46 235.019 237.279 238.799 236.171 242.6C234.618 247.91 233.205 253.258 231.872 258.626C231.754 259.104 231.628 259.583 231.512 260.064C231.06 261.908 230.627 263.755 230.204 265.609C230.014 266.43 229.833 267.258 229.649 268.081C228.138 274.875 226.802 281.703 225.646 288.563C225.562 289.074 225.469 289.581 225.386 290.093C224.82 293.528 224.299 296.969 223.824 300.418C223.671 301.528 223.508 302.641 223.365 303.753C222.526 310.248 221.835 316.763 221.315 323.29C221.137 325.535 221.022 327.787 220.883 330.04C220.29 339.608 220.008 349.194 220.145 358.771C220.201 362.709 220.319 366.643 220.502 370.574C220.411 372.461 220.467 374.349 220.537 376.234C220.547 376.508 220.553 376.788 220.562 377.062C220.585 377.639 220.602 378.211 220.624 378.786C220.757 382.279 220.881 385.768 221 389.252C221.034 390.275 221.069 391.297 221.103 392.32C221.189 394.89 221.274 397.461 221.359 400.035C221.397 401.151 221.433 402.261 221.47 403.377C221.522 404.849 222.211 410.893 223.117 417.734C223.525 420.812 223.977 424.047 224.435 427.105C224.735 429.097 225.037 431.01 225.333 432.756C225.431 432.945 225.57 433.108 225.76 433.201C225.998 433.309 226.277 433.365 226.577 433.382C226.773 433.399 226.979 433.398 227.183 433.387L227.196 433.388L227.288 433.379L227.288 433.391C227.594 433.376 227.888 433.348 228.136 433.325C228.774 433.277 229.402 433.171 230.015 433.009C230.034 433.006 230.052 433.005 230.069 433.001C230.286 432.957 230.491 432.891 230.703 432.823C231.594 432.538 232.456 432.097 233.028 431.383C233.232 431.126 233.404 430.831 233.516 430.489C233.574 430.33 233.644 430.125 233.619 429.955L233.643 429.972C233.038 427.435 232.438 424.891 231.863 422.348C231.779 421.97 231.7 421.595 231.616 421.221C230.962 418.306 230.332 415.386 229.72 412.462C228.925 408.671 228.165 404.874 227.453 401.066C226.933 398.28 226.43 395.494 225.96 392.701C225.805 391.756 225.639 390.807 225.483 389.856C225.429 389.538 225.38 389.22 225.328 388.902C225.027 387.079 224.73 385.255 224.447 383.429C224.416 383.241 224.385 383.054 224.357 382.865C224.009 380.623 223.678 378.375 223.373 376.124C223.373 375.758 223.375 375.401 223.383 375.039C223.498 375.946 223.596 376.858 223.716 377.763C223.851 378.834 224.004 379.905 224.146 380.971L223.384 374.761C223.511 365.165 223.907 355.584 224.583 346.037L224.584 345.965C224.652 345.012 224.746 344.06 224.819 343.11C224.851 342.684 224.888 342.263 224.921 341.84C225.395 335.817 225.954 329.805 226.656 323.81C229.795 296.964 235.224 270.435 242.788 244.536C243.769 241.188 244.787 237.852 245.839 234.525C252.257 214.222 260.012 194.343 269.067 175.041C269.297 174.547 269.532 174.058 269.765 173.567C270.477 172.061 271.171 170.549 271.9 169.052C272.028 168.788 272.166 168.529 272.295 168.265C274.769 163.199 277.355 158.189 280.004 153.211C284.746 144.305 289.732 135.522 295.016 126.9C298.64 120.972 302.432 115.142 306.297 109.355C308.588 105.926 310.878 102.494 313.252 99.1113C302.896 110.982 293.412 123.636 284.745 136.854Z" fill="#146D90"/>
<path d="M226.577 433.382C226.773 433.399 226.979 433.398 227.183 433.387L227.196 433.388L227.288 433.379L227.288 433.391C227.594 433.376 227.888 433.348 228.136 433.325C228.774 433.277 229.402 433.171 230.015 433.009C228.208 422.796 225.99 404.818 225.895 402.124C225.756 398.031 225.618 393.944 225.483 389.856C225.429 389.538 225.38 389.22 225.328 388.902C225.027 387.079 224.73 385.255 224.447 383.429C224.416 383.241 224.385 383.054 224.357 382.865C224.009 380.623 223.678 378.375 223.373 376.124C223.373 375.758 223.375 375.401 223.383 375.039C223.498 375.946 223.596 376.858 223.716 377.763C223.851 378.834 224.004 379.905 224.146 380.971L223.384 374.761C223.511 365.165 223.907 355.584 224.583 346.037L224.584 345.965C224.718 337.982 225.109 329.995 225.74 322.037C227.91 294.749 232.896 267.65 240.596 241.348C248.265 215.03 258.662 189.516 271.525 165.36C278.597 152.079 286.426 139.213 295.016 126.9C298.64 120.972 302.432 115.142 306.297 109.355C308.588 105.926 310.878 102.494 313.252 99.1113C302.896 110.982 293.412 123.636 284.745 136.854C284.22 137.659 283.679 138.451 283.158 139.257C280.502 143.38 277.941 147.565 275.448 151.792C274.68 153.094 273.913 154.395 273.16 155.706C271.65 158.335 270.176 160.984 268.727 163.647C268.565 163.946 268.399 164.24 268.238 164.539C267.862 165.231 267.468 165.915 267.098 166.61C264.264 171.933 261.572 177.334 258.98 182.783C258.777 183.209 258.565 183.631 258.362 184.06C253.786 193.768 249.593 203.664 245.806 213.715C245.237 215.229 244.703 216.755 244.152 218.275C242.625 222.488 241.155 226.723 239.77 230.985C239.741 231.076 239.71 231.163 239.682 231.254C238.46 235.019 237.279 238.799 236.171 242.6C234.618 247.91 233.205 253.258 231.872 258.626C231.754 259.104 231.628 259.583 231.512 260.064C231.06 261.908 230.627 263.755 230.204 265.609C230.014 266.43 229.833 267.258 229.649 268.081C228.138 274.875 226.802 281.703 225.646 288.563C225.562 289.074 225.469 289.581 225.386 290.093C224.82 293.528 224.299 296.969 223.824 300.418C223.671 301.528 223.508 302.641 223.365 303.753C222.526 310.248 221.835 316.763 221.315 323.29C221.137 325.535 221.022 327.787 220.883 330.04C220.29 339.608 220.008 349.194 220.145 358.771C220.201 362.709 220.319 366.643 220.502 370.574C220.411 372.461 220.467 374.349 220.537 376.234C220.547 376.508 220.553 376.788 220.562 377.062C220.585 377.639 220.602 378.211 220.624 378.786C220.757 382.279 220.881 385.768 221 389.252C221.034 390.275 221.069 391.297 221.103 392.32C221.189 394.89 221.274 397.461 221.359 400.035C221.397 401.151 221.433 402.261 221.47 403.377C221.522 404.849 222.211 410.893 223.117 417.734C223.525 420.812 223.977 424.047 224.435 427.105C224.735 429.097 225.037 431.01 225.333 432.756C225.431 432.945 225.57 433.108 225.76 433.201C225.998 433.309 226.277 433.365 226.577 433.382Z" fill="#488EAC"/>
<path d="M234.665 506.863C235.05 508.252 235.39 509.651 235.797 511.033C236.013 511.762 236.246 512.478 236.501 513.177C236.673 513.646 237.188 514.399 237.206 514.884C236.999 508.895 238.964 503.289 241.54 497.981C241.657 497.738 241.784 497.493 241.918 497.25C241.866 497.16 241.81 497.071 241.768 496.977C241.516 496.393 241.402 495.709 241.247 495.02C240.58 492.102 240.249 489.074 239.432 486.192C238.781 482.904 238.147 479.618 237.532 476.32C236.298 469.739 235.139 463.137 234.065 456.53C232.95 449.684 231.969 442.817 230.968 435.958C230.814 434.906 230.505 433.895 230.069 433.001C230.052 433.005 230.034 433.006 230.015 433.009C229.402 433.171 228.774 433.277 228.136 433.325C227.888 433.348 227.594 433.376 227.288 433.391L227.238 433.555C227.536 440.407 227.851 447.256 228.149 454.108C228.337 458.404 228.525 462.697 228.721 466.994C228.958 472.445 229.205 477.911 230.196 483.271C230.307 483.89 230.432 484.525 230.319 485.139C230.272 485.393 230.174 485.641 230.038 485.863C230.077 486.146 230.113 486.439 230.155 486.725C230.278 487.642 230.403 488.561 230.531 489.49C230.837 491.84 231.144 494.191 231.427 496.54C231.47 496.919 231.523 497.303 231.583 497.685C231.622 497.959 231.662 498.245 231.709 498.526C231.765 498.89 231.828 499.256 231.892 499.619C231.946 499.92 231.999 500.226 232.06 500.526L232.087 500.646C233.457 501.469 234.311 505.464 234.628 506.698L234.665 506.863Z" fill="#C8CFD1"/>
<path d="M226.577 433.382C226.763 433.401 226.958 433.396 227.152 433.388L227.165 433.391L227.196 433.388L227.183 433.387C226.979 433.398 226.773 433.399 226.577 433.382Z" fill="#C8CFD1"/>
<path d="M239.187 533.849C238.661 530.576 238.229 527.278 237.892 523.976C237.724 522.395 237.586 520.812 237.624 519.23C237.636 518.793 237.66 518.343 237.702 517.903C237.868 515.841 238.301 513.801 238.727 511.758C239.272 509.153 239.821 506.535 240.845 504.071C241.47 502.564 242.278 501.142 243.236 499.827L243.249 499.815L243.611 499.322L244.018 498.817L244.025 498.815L244.312 498.478C245.04 497.611 245.855 496.825 246.712 496.085C248.019 494.956 249.445 493.965 250.986 493.189C251.291 493.03 251.773 492.735 252.233 492.557L252.257 492.47C252.323 492.053 252.213 491.638 252.099 491.232L252.024 490.975C250.497 491.996 249.107 492.963 247.988 494.608C243.636 477.117 239.29 459.621 234.937 442.13C234.064 438.592 233.179 435.014 233.028 431.383C232.456 432.097 231.594 432.538 230.703 432.823C230.491 432.891 230.286 432.957 230.069 433.001C230.505 433.895 230.814 434.906 230.968 435.958C231.969 442.817 232.95 449.684 234.065 456.53C235.139 463.137 236.298 469.739 237.532 476.32C238.147 479.618 238.781 482.904 239.432 486.192C240.249 489.074 240.58 492.102 241.247 495.02C241.402 495.709 241.516 496.393 241.768 496.977C241.81 497.071 241.866 497.16 241.918 497.25C241.784 497.493 241.657 497.738 241.54 497.981C238.964 503.289 236.999 508.895 237.206 514.884C237.188 514.399 236.673 513.646 236.501 513.177C236.246 512.478 236.013 511.762 235.797 511.033C235.39 509.651 235.05 508.252 234.665 506.863L234.628 506.698C234.311 505.464 233.457 501.469 232.087 500.646C232.186 501.224 232.307 501.794 232.427 502.383L232.45 502.494L232.506 502.751L233.394 506.592L233.483 506.987L233.493 507.026C233.658 507.69 233.817 508.343 233.975 509.012C234.136 509.665 234.301 510.326 234.456 510.986C234.776 512.295 235.083 513.6 235.364 514.901C235.457 515.333 235.535 515.764 235.627 516.196C236.253 519.145 236.848 522.094 237.426 525.047C238 527.985 238.571 530.923 239.187 533.849Z" fill="#98B5B6"/>
<path d="M241.28 456.566C240.895 455.308 240.495 454.059 240.121 452.793C238.274 446.49 236.295 440.198 234.796 433.806C234.627 433.096 234.474 432.385 234.305 431.674C234.228 431.346 234.205 431.01 234.113 430.687L233.925 430.222L233.794 430.067L233.643 429.972L233.619 429.955C233.644 430.125 233.574 430.33 233.516 430.489C233.404 430.831 233.232 431.126 233.028 431.383C233.179 435.014 234.064 438.592 234.937 442.13C239.29 459.621 243.636 477.117 247.988 494.608C249.107 492.963 250.497 491.996 252.024 490.975C249.524 482.214 246.681 473.666 243.922 465.048C243.021 462.233 242.146 459.404 241.28 456.566Z" fill="#C1CBD1"/>
<path d="M240.781 540.942C240.823 536.136 241.903 531.535 241.658 526.763C241.533 524.288 241.43 521.811 241.42 519.338C241.414 517.793 241.436 516.246 241.535 514.699C241.553 514.367 241.58 514.042 241.614 513.713L241.656 513.213C241.701 512.725 241.762 512.237 241.831 511.747C241.878 511.353 241.94 510.955 242.002 510.551C242.046 510.286 242.091 510.026 242.137 509.767C242.167 509.56 242.214 509.363 242.26 509.156C242.294 508.965 242.334 508.772 242.384 508.58C242.43 508.346 242.481 508.107 242.543 507.875C242.623 507.549 242.73 507.23 242.82 506.905C242.95 506.431 243.07 505.956 243.222 505.49C243.32 505.164 243.435 504.837 243.559 504.514C243.679 504.183 243.804 503.861 243.938 503.546L244.111 503.144C244.25 502.819 244.399 502.498 244.555 502.178C244.739 501.79 244.936 501.415 245.135 501.049C245.288 500.774 245.447 500.498 245.61 500.221C246.103 499.404 246.643 498.615 247.233 497.85L247.24 497.849L247.394 497.661C247.883 497.055 248.403 496.467 248.968 495.902C249.56 495.297 250.196 494.726 250.883 494.173C251.146 493.973 251.419 493.758 251.653 493.516C251.933 493.24 252.156 492.929 252.233 492.557C251.773 492.735 251.291 493.03 250.986 493.189C249.445 493.965 248.019 494.956 246.712 496.085C245.855 496.825 245.04 497.611 244.312 498.478L244.025 498.815L244.018 498.817L243.611 499.322L243.249 499.815L243.236 499.827C242.278 501.142 241.47 502.564 240.845 504.071C239.821 506.535 239.272 509.153 238.727 511.758C238.301 513.801 237.868 515.841 237.702 517.903C237.66 518.343 237.636 518.793 237.624 519.23C237.586 520.812 237.724 522.395 237.892 523.976C238.229 527.278 238.661 530.576 239.187 533.849C239.466 535.166 239.743 536.487 240.044 537.805C240.277 538.853 240.526 539.898 240.781 540.942Z" fill="#E4E5E3"/>
<path d="M230.159 482.842C229.168 477.483 228.92 472.016 228.683 466.566C228.487 462.268 228.3 457.975 228.111 453.679C227.813 446.827 227.499 439.978 227.2 433.126L227.251 432.963L227.25 432.95L227.128 432.962L227.114 432.959C226.92 432.967 226.726 432.972 226.54 432.954C226.239 432.937 225.96 432.881 225.723 432.772C225.533 432.679 225.394 432.517 225.295 432.327C225.219 432.186 225.16 432.032 225.159 431.873C224.966 431.84 224.786 431.993 224.708 432.168C224.63 432.347 224.64 432.545 224.647 432.741C224.681 433.594 224.724 434.449 224.764 435.298C224.8 436.155 224.85 437.002 224.891 437.851C224.986 439.879 225.095 441.894 225.226 443.904C225.266 444.553 225.3 445.207 225.346 445.851C225.355 446.081 225.372 446.309 225.393 446.527C225.448 447.361 225.501 448.201 225.568 449.026C225.635 450.024 225.717 451.015 225.797 452.003C225.871 452.889 225.946 453.766 226.028 454.653C226.33 457.969 226.693 461.275 227.126 464.585C227.301 465.923 227.492 467.259 227.674 468.595C228.107 471.787 228.542 474.978 228.989 478.167C229.328 480.589 229.671 483.01 230.001 485.434C230.137 485.213 230.234 484.964 230.282 484.711C230.394 484.096 230.27 483.461 230.159 482.842Z" fill="#E4E5E3"/>
<path d="M656 634.606C656 651.73 642.119 665.606 624.997 665.606C607.881 665.606 594 651.73 594 634.606C594 617.482 607.881 603.606 624.997 603.606C642.119 603.606 656 617.482 656 634.606Z" stroke="white" stroke-width="3" stroke-miterlimit="10"/>
<defs>
<linearGradient id="paint0_linear_745_31" x1="87.5" y1="153.106" x2="459" y2="609.106" gradientUnits="userSpaceOnUse">
<stop stop-color="#43CEA2"/>
<stop offset="1" stop-color="#185A9D"/>
</linearGradient>
<linearGradient id="paint1_linear_745_31" x1="87.5" y1="153.106" x2="459" y2="609.106" gradientUnits="userSpaceOnUse">
<stop stop-color="#43CEA2"/>
<stop offset="1" stop-color="#185A9D"/>
</linearGradient>
<linearGradient id="paint2_linear_745_31" x1="87.5" y1="153.106" x2="459" y2="609.106" gradientUnits="userSpaceOnUse">
<stop stop-color="#43CEA2"/>
<stop offset="1" stop-color="#185A9D"/>
</linearGradient>
<linearGradient id="paint3_linear_745_31" x1="87.5" y1="153.106" x2="459" y2="609.106" gradientUnits="userSpaceOnUse">
<stop stop-color="#43CEA2"/>
<stop offset="1" stop-color="#185A9D"/>
</linearGradient>
<linearGradient id="paint4_linear_745_31" x1="87.5" y1="153.106" x2="459" y2="609.106" gradientUnits="userSpaceOnUse">
<stop stop-color="#43CEA2"/>
<stop offset="1" stop-color="#185A9D"/>
</linearGradient>
<linearGradient id="paint5_linear_745_31" x1="87.5" y1="153.106" x2="459" y2="609.106" gradientUnits="userSpaceOnUse">
<stop stop-color="#43CEA2"/>
<stop offset="1" stop-color="#185A9D"/>
</linearGradient>
<linearGradient id="paint6_linear_745_31" x1="87.5" y1="153.106" x2="459" y2="609.106" gradientUnits="userSpaceOnUse">
<stop stop-color="#43CEA2"/>
<stop offset="1" stop-color="#185A9D"/>
</linearGradient>
<linearGradient id="paint7_linear_745_31" x1="87.5" y1="153.106" x2="459" y2="609.106" gradientUnits="userSpaceOnUse">
<stop stop-color="#43CEA2"/>
<stop offset="1" stop-color="#185A9D"/>
</linearGradient>
<linearGradient id="paint8_linear_745_31" x1="87.5" y1="153.106" x2="459" y2="609.106" gradientUnits="userSpaceOnUse">
<stop stop-color="#43CEA2"/>
<stop offset="1" stop-color="#185A9D"/>
</linearGradient>
<linearGradient id="paint9_linear_745_31" x1="87.5" y1="153.106" x2="459" y2="609.106" gradientUnits="userSpaceOnUse">
<stop stop-color="#43CEA2"/>
<stop offset="1" stop-color="#185A9D"/>
</linearGradient>
<linearGradient id="paint10_linear_745_31" x1="87.5" y1="153.106" x2="459" y2="609.106" gradientUnits="userSpaceOnUse">
<stop stop-color="#43CEA2"/>
<stop offset="1" stop-color="#185A9D"/>
</linearGradient>
<linearGradient id="paint11_linear_745_31" x1="87.5" y1="153.106" x2="459" y2="609.106" gradientUnits="userSpaceOnUse">
<stop stop-color="#43CEA2"/>
<stop offset="1" stop-color="#185A9D"/>
</linearGradient>
<linearGradient id="paint12_linear_745_31" x1="87.5" y1="153.106" x2="459" y2="609.106" gradientUnits="userSpaceOnUse">
<stop stop-color="#43CEA2"/>
<stop offset="1" stop-color="#185A9D"/>
</linearGradient>
<linearGradient id="paint13_linear_745_31" x1="87.5" y1="153.106" x2="459" y2="609.106" gradientUnits="userSpaceOnUse">
<stop stop-color="#43CEA2"/>
<stop offset="1" stop-color="#185A9D"/>
</linearGradient>
</defs>
</svg>
