<svg width="528" height="439" viewBox="0 0 528 439" fill="none" xmlns="http://www.w3.org/2000/svg">
<path d="M452.515 328.5C452.515 338.719 444.232 347 434.014 347C423.799 347 415.515 338.719 415.515 328.5C415.515 318.281 423.799 310 434.014 310C444.232 310 452.515 318.281 452.515 328.5Z" stroke="#FEF3ED" stroke-width="2.57733" stroke-miterlimit="10"/>
<path d="M151.515 50C151.515 67.124 137.635 81 120.513 81C103.396 81 89.5154 67.124 89.5154 50C89.5154 32.876 103.396 19 120.513 19C137.635 19 151.515 32.876 151.515 50Z" stroke="#FEF3ED" stroke-width="2.57733" stroke-miterlimit="10"/>
<circle cx="383.015" cy="144.5" r="144.5" fill="#FEF3ED"/>
<circle cx="105.015" cy="367.5" r="71.5" fill="#FEF3ED"/>
<path d="M314.065 278.625C316.257 276.805 318.448 274.985 320.639 273.166C320.093 271.493 319.548 269.821 319.001 268.149C316.787 268.389 314.599 268.886 312.507 269.654C313.991 267.625 315.759 265.807 317.727 264.242C288.931 176.242 259.051 88.1526 230.608 0.181963C219.401 5.68996 208.068 11.0779 196.624 16.3246C197.119 18.0619 197.615 19.7993 198.109 21.538C196.591 20.338 195.176 19.0073 193.871 17.5806C192.861 18.0393 191.852 18.4993 190.841 18.9553C191.183 21.0566 191.525 23.1566 191.867 25.2579C190.641 23.5726 189.481 21.8393 188.387 20.0673C145.516 39.3646 101.163 56.5473 56.1733 70.1993C56.852 74.09 57.3133 78.0193 57.5453 81.9633C54.576 79.0446 52.04 75.6873 50.0277 72.0419C49.2761 72.2646 48.524 72.4833 47.7729 72.7033C48.2053 77.1259 48.6371 81.5473 49.0693 85.9686C46.9032 82.05 44.7371 78.1313 42.5715 74.2126C28.4261 78.266 14.2272 81.9633 0 85.2486C3.5152 95.5233 7.05533 105.955 10.6073 116.499C14.0204 117.015 17.4485 117.427 20.8881 117.71C17.9261 118.762 15.0672 120.101 12.3557 121.691C12.5537 122.281 12.7521 122.873 12.95 123.462C15.7125 123.058 18.5209 122.973 21.3021 123.214C19.0021 124.739 16.7027 126.266 14.4027 127.791C42.2287 210.822 70.6667 300.434 95.0307 381.727C179.133 365.361 252.739 338.705 329.703 301.051C327.128 293.09 324.54 285.129 321.944 277.166C319.319 277.651 316.692 278.138 314.065 278.625Z" fill="#F8F8F8"/>
<path d="M26.9469 107.618L26.6641 106.519C96.1333 88.7141 163.393 60.6794 228.437 33.5674L228.875 34.6154C163.792 61.7421 96.4946 89.7941 26.9469 107.618Z" fill="#D4CCC9"/>
<path d="M32.1641 123.995L31.8818 122.895C101.347 105.091 168.609 77.0567 233.656 49.9447L234.093 50.9927C169.008 78.1194 101.708 106.171 32.1641 123.995Z" fill="#D4CCC9"/>
<path d="M37.3814 140.371L37.0991 139.273C106.567 121.467 173.827 93.4327 238.872 66.3207L239.311 67.3687C174.227 94.4967 106.928 122.547 37.3814 140.371Z" fill="#D4CCC9"/>
<path d="M42.5987 156.749L42.3164 155.649C111.783 137.845 179.043 109.81 244.089 82.698L244.527 83.746C179.443 110.873 112.144 138.923 42.5987 156.749Z" fill="#D4CCC9"/>
<path d="M47.8166 173.125L47.5337 172.026C117.003 154.221 184.262 126.186 249.308 99.074L249.746 100.122C184.662 127.25 117.364 155.301 47.8166 173.125Z" fill="#D4CCC9"/>
<path d="M53.0336 189.502L52.751 188.402C122.216 170.598 189.478 142.563 254.524 115.45L254.962 116.499C189.878 143.626 122.576 171.678 53.0336 189.502Z" fill="#D4CCC9"/>
<path d="M58.2509 205.878L57.9683 204.779C127.438 186.974 194.696 158.939 259.74 131.827L260.178 132.875C195.096 160.003 127.799 188.054 58.2509 205.878Z" fill="#D4CCC9"/>
<path d="M63.4682 222.255L63.1855 221.155C132.646 203.354 199.91 175.317 264.959 148.203L265.398 149.253C200.31 176.381 133.007 204.433 63.4682 222.255Z" fill="#D4CCC9"/>
<path d="M68.6855 238.631L68.4028 237.533C137.872 219.727 205.131 191.693 270.175 164.581L270.613 165.629C205.532 192.757 138.233 220.806 68.6855 238.631Z" fill="#D4CCC9"/>
<path d="M73.9013 255.009L73.6187 253.909C143.092 236.103 210.349 208.069 275.393 180.958L275.831 182.005C210.749 209.133 143.453 237.182 73.9013 255.009Z" fill="#D4CCC9"/>
<path d="M79.1201 271.386L78.8374 270.286C148.307 252.479 215.565 224.446 280.611 197.334L281.048 198.382C215.965 225.509 148.668 253.559 79.1201 271.386Z" fill="#D4CCC9"/>
<path d="M84.3374 287.762L84.0547 286.662C153.521 268.858 220.781 240.823 285.828 213.71L286.265 214.758C221.181 241.886 153.883 269.938 84.3374 287.762Z" fill="#D4CCC9"/>
<path d="M89.5533 304.139L89.272 303.038C158.731 285.238 225.995 257.201 291.044 230.089L291.481 231.135C226.395 258.263 159.092 286.315 89.5533 304.139Z" fill="#D4CCC9"/>
<path d="M94.771 320.515L94.4883 319.417C163.963 301.609 231.22 273.575 296.263 246.465L296.7 247.513C231.62 274.639 164.323 302.69 94.771 320.515Z" fill="#D4CCC9"/>
<path d="M99.9882 336.893L99.7056 335.793C169.174 317.987 236.434 289.954 301.479 262.841L301.916 263.889C236.834 291.017 169.535 319.069 99.9882 336.893Z" fill="#D4CCC9"/>
<path d="M105.206 353.269L104.924 352.17C174.39 334.366 241.651 306.33 306.696 279.217L307.134 280.265C242.05 307.393 174.751 335.445 105.206 353.269Z" fill="#D4CCC9"/>
<path d="M396.703 392.893C399.549 392.793 402.393 392.693 405.24 392.59C405.831 390.934 406.421 389.277 407.011 387.619C405.112 386.455 403.076 385.513 400.952 384.842C403.367 384.142 405.876 383.785 408.391 383.749C439.396 296.502 469.597 208.523 500.863 121.515C488.628 119.025 476.364 116.362 464.101 113.517C463.431 115.195 462.76 116.873 462.089 118.55C461.621 116.673 461.315 114.755 461.153 112.827C460.073 112.574 458.995 112.321 457.916 112.065C456.901 113.935 455.889 115.807 454.875 117.678C454.935 115.595 455.076 113.515 455.293 111.443C409.569 100.509 363.964 86.9953 320.013 70.2966C318.173 73.7913 316.136 77.1833 313.909 80.4459C313.343 76.3206 313.389 72.1139 314.024 67.9993C313.293 67.7153 312.564 67.4286 311.835 67.1446C309.473 70.9072 307.113 74.6712 304.752 78.4339C305.433 74.0086 306.115 69.5833 306.795 65.1593C293.123 59.7193 279.627 53.9659 266.359 47.8686C262.86 58.1486 259.285 68.5686 255.649 79.0859C258.036 81.5792 260.497 84.0019 263.047 86.3272C260.06 85.3499 256.979 84.6606 253.86 84.262C253.657 84.8486 253.451 85.4392 253.247 86.0272C255.68 87.3952 257.955 89.0459 260.009 90.9366C257.256 90.7379 254.504 90.5393 251.751 90.3406C223.016 173.062 190.741 261.366 160.331 340.595C236.895 379.053 311.441 402.954 395.368 420.202C398.197 412.327 401.015 404.443 403.828 396.555C401.453 395.335 399.077 394.114 396.703 392.893Z" fill="white"/>
<path d="M478.444 147.707C410.352 129.391 339.945 110.451 274.009 82.0446L274.459 81.002C340.32 109.377 410.687 128.305 478.737 146.611L478.444 147.707Z" fill="#F1E8E1"/>
<path d="M472.56 163.857C404.471 145.541 334.063 126.602 268.127 98.1953L268.576 97.1513C334.438 125.526 404.804 144.454 472.856 162.761L472.56 163.857Z" fill="#F1E8E1"/>
<path d="M466.679 180.006C398.59 161.691 328.18 142.751 262.246 114.345L262.695 113.302C328.556 141.675 398.923 160.605 466.974 178.91L466.679 180.006Z" fill="#F1E8E1"/>
<path d="M460.796 196.157C392.707 177.841 322.299 158.901 256.363 130.494L256.812 129.451C322.675 157.826 393.041 176.755 461.092 195.061L460.796 196.157Z" fill="#F1E8E1"/>
<path d="M454.915 212.306C386.825 193.99 316.416 175.051 250.481 146.645L250.931 145.601C316.791 173.975 387.159 192.905 455.209 211.21L454.915 212.306Z" fill="#F1E8E1"/>
<path d="M449.033 228.457C380.943 210.141 310.535 191.201 244.599 162.794L245.048 161.751C310.909 190.126 381.277 209.054 449.328 227.361L449.033 228.457Z" fill="#F1E8E1"/>
<path d="M443.151 244.607C375.06 226.289 304.649 207.349 238.717 178.943L239.167 177.901C305.023 206.274 375.395 225.203 443.447 243.51L443.151 244.607Z" fill="#F1E8E1"/>
<path d="M437.269 260.757C369.173 242.438 298.761 223.497 232.836 195.094L233.284 194.051C299.135 222.421 369.508 241.353 437.564 259.659L437.269 260.757Z" fill="#F1E8E1"/>
<path d="M431.387 276.907C363.292 258.587 292.879 239.646 226.954 211.243L227.403 210.201C293.254 238.571 363.626 257.502 431.682 275.81L431.387 276.907Z" fill="#F1E8E1"/>
<path d="M425.505 293.057C357.409 274.738 286.997 255.795 221.071 227.393L221.52 226.35C287.372 254.721 357.743 273.651 425.799 291.959L425.505 293.057Z" fill="#F1E8E1"/>
<path d="M419.621 309.206C351.528 290.887 281.116 271.946 215.189 243.542L215.639 242.501C281.489 270.87 351.861 289.802 419.917 308.109L419.621 309.206Z" fill="#F1E8E1"/>
<path d="M413.74 325.355C345.649 307.038 275.239 288.098 209.308 259.693L209.757 258.649C275.613 287.023 345.984 305.953 414.036 324.258L413.74 325.355Z" fill="#F1E8E1"/>
<path d="M407.859 341.505C339.767 323.189 269.357 304.249 203.425 275.842L203.875 274.799C269.731 303.174 340.101 322.102 408.153 340.409L407.859 341.505Z" fill="#F1E8E1"/>
<path d="M401.976 357.655C333.886 339.338 263.475 320.398 197.543 291.993L197.992 290.95C263.85 319.323 334.22 338.253 402.272 356.558L401.976 357.655Z" fill="#F1E8E1"/>
<path d="M396.095 373.806C328.003 355.487 257.594 336.547 191.662 308.143L192.111 307.099C257.967 335.474 328.338 354.402 396.391 372.707L396.095 373.806Z" fill="#F1E8E1"/>
<path d="M390.213 389.955C322.12 371.638 251.711 352.698 185.779 324.293L186.228 323.25C252.085 351.623 322.455 370.551 390.508 388.858L390.213 389.955Z" fill="#F1E8E1"/>
</svg>
